<svg xmlns="http://www.w3.org/2000/svg" viewBox="0 0 258.9 102.05"><defs><style>.cls-1{fill:#535658;}</style></defs><title>logo</title><g id="Layer_2" data-name="Layer 2"><g id="Layer_1-2" data-name="Layer 1"><path class="cls-1" d="M13.07,40.1A18.1,18.1,0,0,1,1.29,35.58l.17-.18-.2.16a1.43,1.43,0,0,1-.35-2.17l.43-.54.42-.53A2.06,2.06,0,0,1,3,31.42a1.33,1.33,0,0,1,1,.38l.1.09c1.68,1.5,5.09,4,9,4s7.12-2.49,7.12-5.8c0-3.77-3.47-6-9.47-8.46C4.3,18.81,1,16.23,1,10,1,6,4.18,0,13,0A18.06,18.06,0,0,1,22.5,2.85a1.41,1.41,0,0,1,.67.85,1.66,1.66,0,0,1-.27,1.36l-.33.52-.33.53A1.49,1.49,0,0,1,20,6.68l-.16-.1c-3.23-2-5.55-2.4-6.92-2.4C7.09,4.19,5.56,8,5.56,10c0,3.19,2.11,5.37,7.27,7.52C19.6,20.27,25.2,23.1,25.2,29.95,25.2,35.64,19.87,40.1,13.07,40.1ZM3.14,31.91H3.08c-.28,0-.57.26-.93.72l-.41.52-.42.53c-.51.81-.17,1.11.27,1.49l0,0A17.58,17.58,0,0,0,13.07,39.6c6.52,0,11.63-4.24,11.63-9.65,0-6-4.06-8.72-12.05-12-3.94-1.64-7.58-3.74-7.58-8,0-2.18,1.64-6.3,7.84-6.3,1.44,0,3.85.43,7.18,2.47l.15.09c.72.4,1.13.3,1.59-.41l.33-.51.34-.53a1.19,1.19,0,0,0,.21-1,.92.92,0,0,0-.44-.55A17.93,17.93,0,0,0,13,.5C4.54.5,1.49,6.21,1.49,10,1.49,16,4.7,18.44,11,21.2c6.19,2.58,9.77,4.87,9.77,8.92,0,3.59-3.28,6.3-7.62,6.3-4.11,0-7.63-2.61-9.37-4.16l-.09-.08A.91.91,0,0,0,3.14,31.91Z"/><path class="cls-1" d="M49.58,39.55H47.82a1.33,1.33,0,0,1-1.29-1.3V26.65c0-3.9-1.63-6-4.7-6A10.51,10.51,0,0,0,35,23.62V38.25a1.33,1.33,0,0,1-1.29,1.3H32a1.33,1.33,0,0,1-1.29-1.3V1.84A1.33,1.33,0,0,1,32,.55h1.71A1.33,1.33,0,0,1,35,1.84V19.11A11.42,11.42,0,0,1,42.1,16.5c5.66,0,8.77,3.6,8.77,10.15v11.6A1.33,1.33,0,0,1,49.58,39.55ZM41.83,20.19c3.35,0,5.2,2.3,5.2,6.46v11.6a.84.84,0,0,0,.79.8h1.76a.84.84,0,0,0,.79-.8V26.65c0-6.22-2.94-9.65-8.27-9.65a11.07,11.07,0,0,0-7.19,2.84l-.43.43V1.84A.84.84,0,0,0,33.69,1H32a.84.84,0,0,0-.79.79V38.25a.84.84,0,0,0,.79.8h1.71a.84.84,0,0,0,.79-.8V23.42l.07-.07A10.87,10.87,0,0,1,41.83,20.19Z"/><path class="cls-1" d="M62.48,40.1c-4.13,0-7-3.07-7-7.46,0-4.6,3.55-7.57,9.05-7.57a18,18,0,0,1,4.43.63c0-2.24-.16-3.79-1-4.62a3.13,3.13,0,0,0-2.36-.74,19.24,19.24,0,0,0-6.51,1.19,1,1,0,0,1-.81,0,1.13,1.13,0,0,1-.56-.72l-.44-1.38A1.13,1.13,0,0,1,58,18a20.78,20.78,0,0,1,7.75-1.45C71.86,16.5,73,19.85,73,26V38.25a1.33,1.33,0,0,1-1.3,1.3h-1c-.78,0-1-.47-1.17-1l-.33-1.1A9.69,9.69,0,0,1,62.48,40.1Zm2-14.52c-5.19,0-8.55,2.77-8.55,7.07,0,4.09,2.68,7,6.52,7a9.25,9.25,0,0,0,6.64-2.79l.3-.3L70,38.4c.16.49.28.65.7.65h1a.84.84,0,0,0,.8-.8V26c0-6.85-1.64-9-6.74-9a20.57,20.57,0,0,0-7.53,1.4c-.5.22-.63.47-.48.91l.44,1.38a.7.7,0,0,0,.3.42.52.52,0,0,0,.42,0,19.48,19.48,0,0,1,6.69-1.23,3.59,3.59,0,0,1,2.71.89c1,1,1.15,2.76,1.11,5.3v.33l-.32-.1A17.92,17.92,0,0,0,64.52,25.58ZM63.09,36.8A4,4,0,0,1,59,32.65C59,29.78,61.11,28,64.52,28a9.64,9.64,0,0,1,4.75.91l.12.07v4.57l0,.06A8.05,8.05,0,0,1,63.09,36.8Zm1.43-8.31c-3.1,0-5,1.59-5,4.15a3.47,3.47,0,0,0,3.6,3.66,7.54,7.54,0,0,0,5.8-2.91V29.27A10.2,10.2,0,0,0,64.52,28.49Z"/><path class="cls-1" d="M82.19,39.55H80.49a1.33,1.33,0,0,1-1.29-1.3V18.35a1.33,1.33,0,0,1,1.29-1.29h1a1.18,1.18,0,0,1,1.18,1L83,19.13a8.6,8.6,0,0,1,6.49-2.63c1.2,0,3.32.14,4,1.06a1.15,1.15,0,0,1,.11,1.09l-.66,1.87a1.19,1.19,0,0,1-.6.71,1.31,1.31,0,0,1-1-.07,5.43,5.43,0,0,0-2.05-.42,6.91,6.91,0,0,0-5.75,2.9V38.25A1.33,1.33,0,0,1,82.19,39.55Zm-1.71-22a.84.84,0,0,0-.79.79V38.25a.84.84,0,0,0,.79.8h1.71a.84.84,0,0,0,.79-.8V23.5l0-.06a7.25,7.25,0,0,1,6.21-3.2,5.87,5.87,0,0,1,2.25.46.88.88,0,0,0,.65.07.71.71,0,0,0,.33-.43l.66-1.86a.65.65,0,0,0-.05-.64c-.37-.53-1.71-.85-3.56-.85a8,8,0,0,0-6.4,2.81l-.3.43-.58-2.11a.69.69,0,0,0-.69-.59Z"/><path class="cls-1" d="M102.26,40.1c-4.13,0-7-3.07-7-7.46,0-4.6,3.55-7.57,9.05-7.57a18,18,0,0,1,4.43.63c0-2.24-.16-3.79-1-4.62a3.13,3.13,0,0,0-2.36-.74,19.24,19.24,0,0,0-6.51,1.19,1,1,0,0,1-.81,0,1.14,1.14,0,0,1-.56-.72l-.44-1.38A1.13,1.13,0,0,1,97.82,18a20.78,20.78,0,0,1,7.75-1.45c6.08,0,7.24,3.35,7.24,9.54V38.25a1.33,1.33,0,0,1-1.29,1.3h-1c-.78,0-1-.47-1.17-1l-.33-1.1A9.69,9.69,0,0,1,102.26,40.1Zm2-14.52c-5.19,0-8.55,2.77-8.55,7.07,0,4.09,2.68,7,6.52,7a9.25,9.25,0,0,0,6.64-2.79l.3-.3.56,1.89c.16.49.28.65.7.65h1a.84.84,0,0,0,.79-.8V26c0-6.85-1.64-9-6.74-9A20.57,20.57,0,0,0,98,18.4c-.5.22-.63.47-.48.91L98,20.69a.7.7,0,0,0,.3.42.52.52,0,0,0,.42,0,19.48,19.48,0,0,1,6.69-1.23,3.59,3.59,0,0,1,2.71.89c1,1,1.15,2.76,1.11,5.3v.33l-.32-.1A17.92,17.92,0,0,0,104.3,25.58ZM102.87,36.8a4,4,0,0,1-4.1-4.16c0-2.87,2.12-4.65,5.53-4.65a9.64,9.64,0,0,1,4.75.91l.12.07v4.57l0,.06A8.05,8.05,0,0,1,102.87,36.8Zm1.43-8.31c-3.1,0-5,1.59-5,4.15a3.47,3.47,0,0,0,3.6,3.66,7.54,7.54,0,0,0,5.8-2.91V29.27A10.2,10.2,0,0,0,104.3,28.49Z"/><path class="cls-1" d="M146.78,39.55h-19a1.3,1.3,0,0,1-1.3-1.3V1.84a1.3,1.3,0,0,1,1.3-1.29h2.15a1.33,1.33,0,0,1,1.29,1.29V35.36h15.59a1.3,1.3,0,0,1,1.29,1.29v1.59A1.3,1.3,0,0,1,146.78,39.55ZM127.75,1a.8.8,0,0,0-.8.79V38.25a.8.8,0,0,0,.8.8h19a.8.8,0,0,0,.79-.8V36.66a.8.8,0,0,0-.79-.79H130.69v-34A.84.84,0,0,0,129.9,1Z"/><path class="cls-1" d="M154.48,39.55h-1.71a1.33,1.33,0,0,1-1.29-1.3V18.35a1.33,1.33,0,0,1,1.29-1.29h1.71a1.33,1.33,0,0,1,1.29,1.29V38.25A1.33,1.33,0,0,1,154.48,39.55Zm-1.71-22a.83.83,0,0,0-.79.79V38.25a.83.83,0,0,0,.79.8h1.71a.84.84,0,0,0,.79-.8V18.35a.84.84,0,0,0-.79-.79Zm.77-10.18a2.84,2.84,0,0,1-2.83-2.83,2.86,2.86,0,1,1,5.73,0A2.83,2.83,0,0,1,153.54,7.38Zm0-5.23a2.34,2.34,0,0,0-2.33,2.39,2.36,2.36,0,0,0,4.73,0A2.36,2.36,0,0,0,153.54,2.15Z"/><path class="cls-1" d="M171.65,40.1c-6.17,0-11.2-5.32-11.2-11.86s5-11.75,11.2-11.75,11.19,5.27,11.19,11.75S177.82,40.1,171.65,40.1Zm0-23.1c-5.9,0-10.7,5-10.7,11.25s4.8,11.36,10.7,11.36,10.69-5.09,10.69-11.36S177.54,17,171.65,17Zm0,19.53c-4.15,0-7.4-3.64-7.4-8.28s3.25-8.12,7.4-8.12,7.4,3.56,7.4,8.12S175.8,36.52,171.65,36.52Zm0-15.9c-3.87,0-6.9,3.34-6.9,7.62s3,7.78,6.9,7.78,6.9-3.42,6.9-7.78S175.52,20.63,171.65,20.63Z"/><path class="cls-1" d="M196.2,40.1c-5.82,0-8.77-3.43-8.77-10.21V18.35a1.33,1.33,0,0,1,1.29-1.29h1.76a1.33,1.33,0,0,1,1.29,1.29v11.6c0,3.9,1.63,6,4.7,6a8.52,8.52,0,0,0,6.29-3V18.35a1.33,1.33,0,0,1,1.29-1.29h1.71a1.33,1.33,0,0,1,1.29,1.29V38.25a1.33,1.33,0,0,1-1.29,1.3h-1c-.79,0-1.06-.56-1.23-1.11l-.27-1A10.36,10.36,0,0,1,196.2,40.1Zm-7.48-22.55a.83.83,0,0,0-.79.79V29.9c0,6.53,2.71,9.71,8.27,9.71a9.88,9.88,0,0,0,7-2.83l.31-.35.5,1.88c.17.57.35.75.75.75h1a.84.84,0,0,0,.79-.8V18.35a.84.84,0,0,0-.79-.79h-1.71a.84.84,0,0,0-.79.79V33.11l-.05.07a8.87,8.87,0,0,1-6.74,3.23c-3.35,0-5.2-2.3-5.2-6.46V18.35a.84.84,0,0,0-.79-.79Z"/><path class="cls-1" d="M12.52,77.9H11a1.29,1.29,0,0,1-1.29-1.24V68.28H1.3A1.33,1.33,0,0,1,0,67V65.44a1.33,1.33,0,0,1,1.3-1.29H9.68V55.71A1.28,1.28,0,0,1,11,54.47h1.54a1.28,1.28,0,0,1,1.29,1.24v8.44h8.44a1.29,1.29,0,0,1,1.24,1.29V67a1.29,1.29,0,0,1-1.24,1.29H13.81v8.38A1.29,1.29,0,0,1,12.52,77.9ZM1.3,64.65a.84.84,0,0,0-.8.79V67a.84.84,0,0,0,.8.79h8.88v8.88a.79.79,0,0,0,.79.74h1.54a.78.78,0,0,0,.79-.74V67.78h8.94A.79.79,0,0,0,23,67V65.44a.79.79,0,0,0-.74-.79H13.31V55.71a.79.79,0,0,0-.79-.74H11a.79.79,0,0,0-.79.74v8.94Z"/><path class="cls-1" d="M39.52,86.1A10.72,10.72,0,0,1,31,81.94l0,0a1.41,1.41,0,0,1,.13-1.67l1.16-1.32a1.71,1.71,0,0,1,1.12-.56,1.7,1.7,0,0,1,1.12.72c.95,1.06,2.88,2.83,5.15,2.83,3,0,6.46-2.09,6.46-8V47.85a1.3,1.3,0,0,1,1.29-1.29h2.15a1.3,1.3,0,0,1,1.29,1.29v26C50.82,81.27,46.39,86.1,39.52,86.1Zm-8.16-4.46a10.23,10.23,0,0,0,8.16,4c6.56,0,10.8-4.63,10.8-11.79v-26a.8.8,0,0,0-.79-.79H47.38a.8.8,0,0,0-.79.79V73.91c0,4.23-2.15,8.5-7,8.5-2.47,0-4.52-1.88-5.52-3-.27-.3-.51-.54-.77-.55a1.27,1.27,0,0,0-.74.4l-1.14,1.3A.91.91,0,0,0,31.36,81.64Z"/><path class="cls-1" d="M67.35,86.1c-6.17,0-11.2-5.32-11.2-11.86s5-11.75,11.2-11.75,11.19,5.27,11.19,11.75S73.53,86.1,67.35,86.1Zm0-23.1c-5.9,0-10.7,5-10.7,11.25s4.8,11.36,10.7,11.36S78,80.51,78,74.24,73.25,63,67.35,63Zm0,19.53c-4.15,0-7.4-3.64-7.4-8.28s3.25-8.12,7.4-8.12,7.4,3.56,7.4,8.12S71.5,82.52,67.35,82.52Zm0-15.9c-3.87,0-6.9,3.34-6.9,7.62s3,7.78,6.9,7.78,6.9-3.42,6.9-7.78S71.22,66.63,67.35,66.63Z"/><path class="cls-1" d="M89.46,86.1a11.41,11.41,0,0,1-7.3-2.53h0a1.34,1.34,0,0,1-.35-1.45c.15-.23.34-.58.51-.9s.21-.4.28-.51a1.09,1.09,0,0,1,.69-.49,1.52,1.52,0,0,1,1.14.25,9.11,9.11,0,0,0,5,1.89c2,0,3.33-1,3.33-2.39,0-1.75-1.53-2.59-4.7-4.18-2.24-1.1-6.41-3.14-6.41-7.32,0-2.4,1.93-6,7.24-6a11.56,11.56,0,0,1,6.25,1.75,1.57,1.57,0,0,1,.41,2l-.44.87a1.44,1.44,0,0,1-.88.7,1.4,1.4,0,0,1-1.06-.1,10.75,10.75,0,0,0-4.28-1.29C86.23,66.47,86,68,86,68.41c0,1.6,1.64,2.4,3.72,3.41l.21.1c3.61,1.73,7.35,3.51,7.35,7.71C97.3,83.63,93.23,86.1,89.46,86.1Zm-7-2.92a10.93,10.93,0,0,0,7,2.42c4.53,0,7.34-3.1,7.34-6,0-3.88-3.43-5.52-7.06-7.25l-.21-.1c-2.24-1.09-4-1.95-4-3.86,0-1.18.89-2.45,3.39-2.45a11.07,11.07,0,0,1,4.52,1.35.9.9,0,0,0,.68.06.94.94,0,0,0,.57-.45l.44-.87a1.08,1.08,0,0,0-.24-1.39,11,11,0,0,0-6-1.66c-4.94,0-6.74,3.27-6.74,5.47,0,3.57,3.16,5.42,6.13,6.87s5,2.49,5,4.63c0,1.73-1.54,2.89-3.83,2.89a9.44,9.44,0,0,1-5.33-2,1,1,0,0,0-.74-.16A.59.59,0,0,0,83,81l-.26.48c-.17.32-.37.69-.51.9A.85.85,0,0,0,82.46,83.18Z"/><path class="cls-1" d="M111.31,86.1c-6.39,0-11-5-11-11.8s4.64-11.8,11-11.8a9.92,9.92,0,0,1,10.21,10.32,13.72,13.72,0,0,1-.11,1.52,1.26,1.26,0,0,1-1.24,1.15H104.59a7.43,7.43,0,0,0,7.1,6.65A10.06,10.06,0,0,0,117,80.52l.2-.11c.64-.37,1.14-.66,1.68.07l.47.63.47.63a1.28,1.28,0,0,1,.39.92,1.38,1.38,0,0,1-.66.86A14,14,0,0,1,111.31,86.1Zm0-23.1c-6.91,0-10.53,5.68-10.53,11.3,0,6.55,4.43,11.3,10.53,11.3a13.43,13.43,0,0,0,7.93-2.48c.29-.21.45-.39.47-.53s-.11-.32-.29-.55l-.47-.64-.47-.63c-.26-.36-.36-.32-1,.07l-.19.11a10.53,10.53,0,0,1-5.57,1.68,7.94,7.94,0,0,1-7.62-7.39l0-.26h16.11a.76.76,0,0,0,.74-.71,13.4,13.4,0,0,0,.11-1.46A9.44,9.44,0,0,0,111.31,63Zm6.42,9.41H104.1l0-.28a7.06,7.06,0,0,1,7.18-6.27,6.6,6.6,0,0,1,6.41,6.29Zm-13.07-.5H117.2a6.09,6.09,0,0,0-5.89-5.55A6.57,6.57,0,0,0,104.67,71.9Z"/><path class="cls-1" d="M129.32,102.05h-1.71a1.33,1.33,0,0,1-1.29-1.3V64.35a1.33,1.33,0,0,1,1.29-1.29h1.16c.65,0,.88.28,1.11.87l.26.71a10.16,10.16,0,0,1,6.27-2.14c6,0,10.65,5.21,10.65,11.86S142.41,86.1,136.25,86.1a10.53,10.53,0,0,1-5.64-1.58v16.24A1.33,1.33,0,0,1,129.32,102.05Zm-1.71-38.5a.84.84,0,0,0-.79.79v36.41a.84.84,0,0,0,.79.8h1.71a.84.84,0,0,0,.79-.8V83.51l.41.33a9.84,9.84,0,0,0,5.73,1.76c5.88,0,10.31-4.83,10.31-11.25S142.1,63,136.41,63a9.62,9.62,0,0,0-6.21,2.24l-.28.26-.52-1.4c-.2-.5-.3-.55-.65-.55Zm8.14,18.86a9.38,9.38,0,0,1-5.5-2l-.09-.08V68.83l.05-.07A7.65,7.65,0,0,1,136,66c4.71,0,7.18,4.19,7.18,8.33C143.21,78.93,140,82.41,135.75,82.41Zm-5.08-2.3a9,9,0,0,0,5.08,1.8c4,0,7-3.27,7-7.61,0-5.38-3.46-7.83-6.68-7.83A7.25,7.25,0,0,0,130.67,69Z"/><path class="cls-1" d="M170.88,85.55h-1.76a1.33,1.33,0,0,1-1.29-1.3V72.65c0-3.9-1.62-6-4.7-6a10.52,10.52,0,0,0-6.85,2.93V84.25a1.33,1.33,0,0,1-1.29,1.3h-1.71a1.33,1.33,0,0,1-1.29-1.3V47.85a1.33,1.33,0,0,1,1.29-1.29H155a1.33,1.33,0,0,1,1.29,1.29V65.11a11.42,11.42,0,0,1,7.12-2.61c5.66,0,8.78,3.6,8.78,10.15v11.6A1.33,1.33,0,0,1,170.88,85.55Zm-7.75-19.37c3.35,0,5.2,2.3,5.2,6.46v11.6a.83.83,0,0,0,.79.8h1.76a.84.84,0,0,0,.79-.8V72.65c0-6.22-2.94-9.65-8.28-9.65a11.07,11.07,0,0,0-7.19,2.84l-.43.43V47.85a.83.83,0,0,0-.79-.79h-1.71a.84.84,0,0,0-.79.79V84.25a.84.84,0,0,0,.79.8H155a.83.83,0,0,0,.79-.8V69.42l.07-.07A10.88,10.88,0,0,1,163.12,66.19Z"/><path class="cls-1" d="M210.15,85.55h-19a1.3,1.3,0,0,1-1.29-1.3V47.85a1.3,1.3,0,0,1,1.29-1.29h2.14a1.33,1.33,0,0,1,1.3,1.29V81.36h15.59a1.3,1.3,0,0,1,1.29,1.29v1.59A1.3,1.3,0,0,1,210.15,85.55Zm-19-38.5a.8.8,0,0,0-.79.79V84.25a.8.8,0,0,0,.79.8h19a.8.8,0,0,0,.79-.8V82.66a.8.8,0,0,0-.79-.79H194.06v-34a.83.83,0,0,0-.8-.79Z"/><path class="cls-1" d="M224.07,86.1c-6.39,0-11-5-11-11.8s4.64-11.8,11-11.8a9.92,9.92,0,0,1,10.21,10.32,13.46,13.46,0,0,1-.11,1.52,1.26,1.26,0,0,1-1.24,1.15H217.35a7.43,7.43,0,0,0,7.1,6.65,10.06,10.06,0,0,0,5.32-1.61l.2-.11c.64-.37,1.14-.66,1.68.07l.47.63.47.63a1.28,1.28,0,0,1,.39.92,1.37,1.37,0,0,1-.66.86A14,14,0,0,1,224.07,86.1Zm0-23.1c-6.91,0-10.53,5.68-10.53,11.3,0,6.55,4.43,11.3,10.53,11.3A13.43,13.43,0,0,0,232,83.12q.44-.32.47-.53c0-.14-.11-.32-.29-.55l-.47-.64-.47-.63c-.26-.36-.36-.32-1,.07L230,81a10.53,10.53,0,0,1-5.57,1.68,8,8,0,0,1-7.62-7.39l0-.26h16.11a.76.76,0,0,0,.74-.71,13.27,13.27,0,0,0,.11-1.46A9.44,9.44,0,0,0,224.07,63Zm6.42,9.41H216.86l0-.28a7.06,7.06,0,0,1,7.18-6.27,6.6,6.6,0,0,1,6.41,6.29Zm-13.07-.5H230a6.09,6.09,0,0,0-5.89-5.55A6.57,6.57,0,0,0,217.42,71.9Z"/><path class="cls-1" d="M248.7,86.1c-6.39,0-11-5-11-11.8s4.64-11.8,11-11.8A9.92,9.92,0,0,1,258.9,72.81a13.79,13.79,0,0,1-.11,1.52,1.26,1.26,0,0,1-1.24,1.15H242a7.43,7.43,0,0,0,7.1,6.65,10.06,10.06,0,0,0,5.31-1.61l.2-.11c.64-.37,1.14-.66,1.68.07l.47.63.47.63a1.28,1.28,0,0,1,.39.92,1.37,1.37,0,0,1-.66.86A14,14,0,0,1,248.7,86.1Zm0-23.1c-6.91,0-10.53,5.68-10.53,11.3,0,6.55,4.43,11.3,10.53,11.3a13.43,13.43,0,0,0,7.93-2.48q.44-.32.47-.53c0-.14-.11-.32-.29-.55l-.47-.64-.47-.63c-.26-.36-.36-.32-1,.06l-.19.11a10.53,10.53,0,0,1-5.57,1.68,7.94,7.94,0,0,1-7.62-7.39l0-.26h16.11a.76.76,0,0,0,.74-.71,13.35,13.35,0,0,0,.11-1.46A9.44,9.44,0,0,0,248.7,63Zm6.42,9.41H241.49l0-.28a7.06,7.06,0,0,1,7.18-6.27,6.6,6.6,0,0,1,6.41,6.29Zm-13.07-.5h12.54a6.09,6.09,0,0,0-5.89-5.55A6.57,6.57,0,0,0,242.05,71.9Z"/></g></g></svg>