<svg xmlns="http://www.w3.org/2000/svg" xmlns:xlink="http://www.w3.org/1999/xlink" viewBox="0 0 800.21 608.16"><defs><style>.cls-1,.cls-2{fill:none;}.cls-2{stroke:#dae8d4;}.cls-2,.cls-26{stroke-miterlimit:10;}.cls-3{fill:#eaeaea;}.cls-4{fill:#fdd0ab;}.cls-5{fill:#e2f0dc;}.cls-6{fill:url(#New_Pattern_3);}.cls-7{fill:#e0f2f6;}.cls-8{fill:#aed1db;}.cls-9{font-size:36px;fill:#6c6e70;}.cls-11,.cls-15,.cls-16,.cls-19,.cls-22,.cls-32,.cls-9{font-family:BrandonGrotesque-Black, Brandon Grotesque;}.cls-10{letter-spacing:0.03em;}.cls-11{font-size:24px;}.cls-11,.cls-15,.cls-16,.cls-19{fill:#9a9893;}.cls-12{letter-spacing:0em;}.cls-13{opacity:0.8;}.cls-14{fill:#f79344;}.cls-15{font-size:18px;}.cls-16,.cls-22{font-size:14px;}.cls-17{letter-spacing:-0.01em;}.cls-18{letter-spacing:-0.01em;}.cls-19{font-size:21px;}.cls-20{letter-spacing:-0.03em;}.cls-21{letter-spacing:0em;}.cls-22{fill:#9a9793;}.cls-23{letter-spacing:0em;}.cls-24{letter-spacing:-0.02em;}.cls-25{letter-spacing:-0.02em;}.cls-26{fill:#fbbb87;stroke:#a9a7a8;stroke-width:2px;}.cls-27{fill:#8c8b88;}.cls-28{letter-spacing:-0.06em;}.cls-29{letter-spacing:0em;}.cls-30{letter-spacing:-0.03em;}.cls-31{letter-spacing:0em;}.cls-32{opacity:0.9;font-size:16px;fill:#5d5e5e;}.cls-33{letter-spacing:-0.01em;}.cls-34{letter-spacing:0em;}.cls-35{letter-spacing:0em;}.cls-36{letter-spacing:-0.02em;}.cls-37{letter-spacing:-0.01em;}.cls-38{letter-spacing:0em;}.cls-39{letter-spacing:0em;}</style><pattern id="New_Pattern_3" data-name="New Pattern 3" width="47.88" height="47.88" patternUnits="userSpaceOnUse" viewBox="0 0 47.88 47.88"><rect class="cls-1" width="47.88" height="47.88"/><line class="cls-2" x1="218.3" y1="21.12" x2="21.12" y2="218.3"/><line class="cls-2" x1="170.41" y1="21.12" x2="-26.76" y2="218.3"/><line class="cls-2" x1="122.53" y1="21.12" x2="-74.65" y2="218.3"/><line class="cls-2" x1="74.65" y1="21.12" x2="-122.53" y2="218.3"/><line class="cls-2" x1="26.76" y1="21.12" x2="-170.41" y2="218.3"/><line class="cls-2" x1="218.3" y1="-26.76" x2="21.12" y2="170.41"/><line class="cls-2" x1="170.41" y1="-26.76" x2="-26.76" y2="170.41"/><line class="cls-2" x1="122.53" y1="-26.76" x2="-74.65" y2="170.41"/><line class="cls-2" x1="74.65" y1="-26.76" x2="-122.53" y2="170.41"/><line class="cls-2" x1="26.76" y1="-26.76" x2="-170.41" y2="170.41"/><line class="cls-2" x1="218.3" y1="-74.65" x2="21.12" y2="122.53"/><line class="cls-2" x1="170.41" y1="-74.65" x2="-26.76" y2="122.53"/><line class="cls-2" x1="122.53" y1="-74.65" x2="-74.65" y2="122.53"/><line class="cls-2" x1="74.65" y1="-74.65" x2="-122.53" y2="122.53"/><line class="cls-2" x1="26.76" y1="-74.65" x2="-170.41" y2="122.53"/><line class="cls-2" x1="218.3" y1="-122.53" x2="21.12" y2="74.65"/><line class="cls-2" x1="170.41" y1="-122.53" x2="-26.76" y2="74.65"/><line class="cls-2" x1="122.53" y1="-122.53" x2="-74.65" y2="74.65"/><line class="cls-2" x1="74.65" y1="-122.53" x2="-122.53" y2="74.65"/><line class="cls-2" x1="26.76" y1="-122.53" x2="-170.41" y2="74.65"/><line class="cls-2" x1="218.3" y1="-170.41" x2="21.12" y2="26.76"/><line class="cls-2" x1="170.41" y1="-170.41" x2="-26.76" y2="26.76"/><line class="cls-2" x1="122.53" y1="-170.41" x2="-74.65" y2="26.76"/><line class="cls-2" x1="74.65" y1="-170.41" x2="-122.53" y2="26.76"/><line class="cls-2" x1="26.76" y1="-170.41" x2="-170.41" y2="26.76"/></pattern></defs><title>map</title><g id="Streets"><rect class="cls-3" x="495.18" y="-28.11" width="228.94" height="81.33"/><polygon class="cls-3" points="126.13 -28.11 126.13 131.97 41.86 121.14 41.86 -28.11 126.13 -28.11"/><polygon class="cls-3" points="236.13 -28.11 236.13 102.22 137.13 102.22 137.13 -28.11 230.94 -28.11 236.13 -28.11"/><polygon class="cls-3" points="479.07 -28.11 479.07 102.22 362.13 102.22 362.13 -28.11 479.13 -28.11 479.07 -28.11"/><polygon class="cls-3" points="350.13 -28.11 350.13 102.22 249.13 102.22 249.13 -28.11 352.13 -28.11 350.13 -28.11"/><polygon class="cls-3" points="32.15 -28.11 32.15 120.62 0.13 119.89 0 -28.17 32.15 -28.11 32.15 -28.11"/><polygon class="cls-3" points="0.13 133.89 32.15 134.47 32.15 179.8 0.13 181.89 0.13 133.89 0.13 133.89"/><polygon class="cls-3" points="800.13 673.89 770.47 614.71 756.7 540.17 758.13 -28.11 800.21 -28.17 800.13 673.89"/><polygon class="cls-3" points="734.15 600.98 743.62 627.81 575.47 679.11 586.94 586.12 725.47 545.5 734.15 600.98"/><polygon class="cls-3" points="723.47 527.61 586.07 571.9 577.13 500.23 724.13 453.8 723.47 527.61"/><polygon class="cls-3" points="724.13 119.58 724.13 171.89 519.23 369.61 464.54 319.81 660.85 119.58 724.13 119.58"/><polygon class="cls-3" points="226.82 119.58 362.29 254.31 342.34 275.16 194.99 160.58 137.13 135.72 137.13 119.58 226.82 119.58"/><polygon class="cls-3" points="303.01 316.4 246.47 269.46 172.13 212.17 123.39 191.89 137.13 149.46 187.73 172.18 333.43 284.33 303.01 316.4"/><polygon class="cls-3" points="628.67 119.58 448.63 303.59 391.27 247.79 494.13 138.14 496.79 119.58 628.67 119.58"/><polygon class="cls-4" points="724.13 382.6 552.64 429.92 532.4 390.52 558.47 366.86 724.13 336.45 724.13 382.6"/><polygon class="cls-3" points="673.63 67.84 639.01 102.22 495.18 102.22 495.18 67.84 673.63 67.84"/><polygon class="cls-3" points="499.04 389.19 433.32 444 388.49 394.9 446.16 338.4 499.04 389.19"/><polygon class="cls-3" points="374.28 380.82 314.51 327.66 374.64 267.79 431.29 324.16 374.28 380.82"/><polygon class="cls-3" points="724.13 319.05 577.58 345.84 724.13 203 724.13 319.05"/><polygon class="cls-3" points="516.82 576.59 481.89 586.5 471.83 530.29 556.1 504.83 564.28 575.91 516.82 576.59"/><polygon class="cls-3" points="479.76 119.58 475.21 136.79 376.71 238.95 309.51 172.86 362.13 119.58 479.76 119.58"/><polygon class="cls-3" points="549.93 489.39 469.92 514.87 458.08 482.04 444.1 456.9 510.95 403.39 536.4 445.71 549.93 489.39"/><polygon class="cls-3" points="724.13 436.99 570.14 483.45 560.45 447.56 724.13 400.48 724.13 436.99"/><polygon class="cls-3" points="123.39 145.62 109.63 188.85 41.86 180.72 41.86 134.3 123.39 145.62"/><polygon class="cls-3" points="564.34 590.81 555.76 668.32 485.88 596.14 521.42 589.32 564.34 590.81"/><polygon class="cls-3" points="724.13 102.22 667.71 102.22 702.64 67.84 724.13 67.84 724.13 102.22"/><polygon class="cls-3" points="348.13 119.58 301.02 165.38 251.38 119.58 348.13 119.58"/><path class="cls-5" d="M0,207.9V759.4s245.65,5.94,288-.93,95.1-32.06,122-89.42c17.85-38.07,31.71-58,31-92.09-.37-17.28-11-59.31-13.48-66.11-7.27-20.21-29-58.45-40.27-70.57-19.67-21.13-41.77-40.63-62.43-60.79C321.22,376,280,334,256.45,314.28s-64-56.21-114.79-83.05S0,207.9,0,207.9Z"/><path class="cls-6" d="M4,218.35V752.47s237.91,5.75,279-.9,92.1-31,118.14-86.6c17.28-36.87,30.71-56.16,30-89.18-.36-16.74-10.69-57.44-13.05-64-7-19.57-28.08-56.61-39-68.35-19-20.47-40.46-39.35-60.47-58.88-3.47-3.39-43.38-44.06-66.21-63.16s-62-54.44-111.18-80.44S4,218.35,4,218.35Z"/><polygon class="cls-4" points="606.02 126.95 572.36 160.92 542.48 131.5 543.14 126.95 606.02 126.95"/><path class="cls-7" d="M115.5,706C76.84,744.61.58,740.28.58,740.28V335.84s67.71-16.67,121.13,33.76,48.42,84.29,48.42,157.28S154.15,667.31,115.5,706Z"/><path class="cls-8" d="M130.8,528.73a.68.68,0,0,0-.68.68,9.36,9.36,0,1,1-18.72,0,.68.68,0,0,0-1.37,0,9.36,9.36,0,0,1-18.69.72c0-.24,0-.48,0-.72a.68.68,0,0,0-.68-.68.79.79,0,0,0-.75.75c0,.22,0,.44,0,.66a9.36,9.36,0,0,1-18.68-.73.68.68,0,0,0-1.37,0,9.36,9.36,0,1,1-18.72,0,.68.68,0,0,0-1.37,0,9.36,9.36,0,0,1-18.72.07.68.68,0,0,0-.68-.68.65.65,0,0,0-.68.68,10.72,10.72,0,0,0,20.77,3.69,10.72,10.72,0,0,0,20.09,0,10.72,10.72,0,0,0,20,.1,10.73,10.73,0,0,0,20.06-.1,10.69,10.69,0,0,0,10,7c8.1,0,10.73-7.19,10.73-10.73A.68.68,0,0,0,130.8,528.73Z"/><path class="cls-8" d="M113.4,581.67a.68.68,0,0,0-1.37,0,9.36,9.36,0,0,1-18.69.72c0-.24,0-.48,0-.72a.68.68,0,0,0-.68-.68.79.79,0,0,0-.75.75c0,.22,0,.44,0,.66a9.36,9.36,0,0,1-18.68-.73.68.68,0,0,0-1.37,0,9.36,9.36,0,1,1-18.72,0,.68.68,0,0,0-1.37,0,9.36,9.36,0,0,1-18.72.07.68.68,0,0,0-.68-.68.65.65,0,0,0-.68.68,10.72,10.72,0,0,0,20.77,3.69,10.72,10.72,0,0,0,20.09,0,10.72,10.72,0,0,0,20,.1,10.71,10.71,0,0,0,10,6.87A10.51,10.51,0,0,0,113.4,581.67Z"/><path class="cls-8" d="M119.34,478.86a.68.68,0,0,0-1.37,0,9.36,9.36,0,0,1-18.69.72c0-.24,0-.48,0-.72a.68.68,0,0,0-.68-.68.79.79,0,0,0-.75.75c0,.22,0,.44,0,.66a9.36,9.36,0,0,1-18.68-.73.68.68,0,0,0-1.37,0,9.36,9.36,0,1,1-18.72,0,.68.68,0,0,0-1.37,0,9.36,9.36,0,0,1-18.72.07.68.68,0,0,0-.68-.68.65.65,0,0,0-.68.68,10.72,10.72,0,0,0,20.77,3.69,10.72,10.72,0,0,0,20.09,0,10.72,10.72,0,0,0,20,.1,10.71,10.71,0,0,0,10,6.87A10.51,10.51,0,0,0,119.34,478.86Z"/><path class="cls-8" d="M130.8,423.22a.68.68,0,0,0-.68.68,9.36,9.36,0,1,1-18.72,0,.68.68,0,0,0-1.37,0,9.36,9.36,0,0,1-18.69.72c0-.24,0-.48,0-.72a.68.68,0,0,0-.68-.68.79.79,0,0,0-.75.75c0,.22,0,.44,0,.66a9.36,9.36,0,0,1-18.68-.73.68.68,0,0,0-1.37,0,9.36,9.36,0,1,1-18.72,0,.68.68,0,0,0-1.37,0,9.36,9.36,0,0,1-18.72.07.68.68,0,0,0-.68-.68.65.65,0,0,0-.68.68,10.72,10.72,0,0,0,20.77,3.69,10.72,10.72,0,0,0,20.09,0,10.72,10.72,0,0,0,20,.1,10.73,10.73,0,0,0,20.06-.1,10.69,10.69,0,0,0,10,7c8.1,0,10.73-7.19,10.73-10.73A.68.68,0,0,0,130.8,423.22Z"/><path class="cls-8" d="M48.5,384.42a10.78,10.78,0,0,0,10-7,10.72,10.72,0,0,0,20.09,0A10.72,10.72,0,0,0,99.4,373.7a.68.68,0,0,0-.68-.68.65.65,0,0,0-.68.68,9.36,9.36,0,1,1-18.72,0,.68.68,0,0,0-1.37,0,9.36,9.36,0,0,1-18.72,0,.68.68,0,0,0-1.37,0,9.36,9.36,0,0,1-18.72.07.68.68,0,0,0-.68-.68.65.65,0,0,0-.68.68A10.69,10.69,0,0,0,48.5,384.42Z"/><polygon class="cls-4" points="714.59 521.99 657.51 538.29 654.01 484.3 713.59 466.41 714.59 521.99"/><text class="cls-9" transform="translate(195.11 558.9)">GREEN <tspan class="cls-10" x="127.37" y="0">L</tspan><tspan x="146.95" y="0">AKE</tspan></text><text class="cls-11" transform="matrix(0.73, 0.68, -0.68, 0.73, 281.61, 324.56)"> </text><text class="cls-11" transform="matrix(0.73, 0.69, -0.69, 0.73, 285.47, 328.15)"> </text><text class="cls-11" transform="matrix(0.72, 0.69, -0.69, 0.72, 289.29, 331.78)"> </text><text class="cls-11" transform="matrix(0.72, 0.7, -0.7, 0.72, 293.1, 335.45)"> </text><text class="cls-11" transform="translate(296.88 339.14) rotate(44.58)"> </text><text class="cls-11" transform="matrix(0.71, 0.71, -0.71, 0.71, 300.64, 342.85)"> </text><text class="cls-11" transform="translate(304.39 346.57) rotate(45.07)"> </text><text class="cls-11" transform="matrix(0.7, 0.71, -0.71, 0.7, 308.13, 350.3)">E</text><text class="cls-11" transform="translate(317.72 360.05) rotate(45.78)">a</text><text class="cls-11" transform="translate(324.9 367.42) rotate(46.02)">s</text><text class="cls-11" transform="matrix(0.69, 0.72, -0.72, 0.69, 331.06, 373.82)">t</text><text class="cls-11" transform="translate(336.79 379.79) rotate(46.31)"> </text><text class="cls-11" transform="matrix(0.7, 0.71, -0.71, 0.7, 340.49, 383.77)">G</text><text class="cls-11" transform="matrix(0.71, 0.7, -0.7, 0.71, 352.1, 395.44)">r</text><text class="cls-11" transform="translate(357.92 401.19) rotate(44.52)">e</text><text class="cls-11" transform="translate(365.43 408.57) rotate(44.56)">e</text><text class="cls-11" transform="matrix(0.71, 0.71, -0.71, 0.71, 372.93, 415.94)">n</text><text class="cls-11" transform="translate(381.88 424.87) rotate(45.31)"> </text><text class="cls-11" transform="translate(385.59 428.59) rotate(45.91)">L</text><text class="cls-11" transform="translate(394.08 437.36) rotate(46.94)">a</text><text class="cls-11" transform="translate(401.03 444.79) rotate(48.15)">k</text><text class="cls-11" transform="matrix(0.56, 0.83, -0.83, 0.56, 408.65, 453.54)">e</text><text class="cls-11" transform="matrix(0.53, 0.85, -0.85, 0.53, 414.46, 462.14)"> </text><text class="cls-11" transform="translate(417.29 466.44) rotate(60.04)">D</text><text class="cls-11" transform="translate(425.76 481.28) rotate(61.9)">r</text><text class="cls-11" transform="translate(429.63 488.54) rotate(62.86)"> </text><text class="cls-11" transform="matrix(0.43, 0.9, -0.9, 0.43, 432.08, 493.08)">N</text><text class="cls-11" transform="translate(439.7 509.45) rotate(67.21)">.</text><text class="cls-11" transform="translate(664.45 512) rotate(-3)">P<tspan class="cls-12" x="14.14" y="0">C</tspan><tspan x="30.22" y="0">C</tspan></text><g class="cls-13"><path class="cls-14" d="M571,419.6a21.65,21.65,0,1,1,21.65-21.65A21.67,21.67,0,0,1,571,419.6Zm0-39.74a18.09,18.09,0,1,0,18.09,18.09A18.11,18.11,0,0,0,571,379.86Z"/></g><polygon class="cls-14" points="571.05 384.95 575.27 393.51 584.71 394.88 577.88 401.54 579.49 410.94 571.05 406.5 562.6 410.94 564.21 401.54 557.38 394.88 566.82 393.51 571.05 384.95"/><text class="cls-11" transform="translate(567.36 149.98)">P</text><rect class="cls-4" x="622.18" y="17.85" width="33.9" height="29.35"/><text class="cls-11" transform="translate(632.36 41.89)">P</text><text class="cls-15" transform="matrix(0.68, -0.74, 0.74, 0.68, 515.96, 260.63)">4</text><text class="cls-15" transform="translate(518.89 248.6) rotate(-47.34) scale(0.41)">T</text><text class="cls-15" transform="matrix(0.28, -0.3, 0.3, 0.28, 521.42, 245.86)">H</text><text class="cls-15" transform="matrix(0.68, -0.74, 0.74, 0.68, 529.68, 245.74)"> </text><text class="cls-15" transform="translate(532.37 242.82) rotate(-47.34)">A</text><text class="cls-15" transform="matrix(0.68, -0.74, 0.74, 0.68, 540.06, 234.48)">v</text><text class="cls-15" transform="matrix(0.68, -0.74, 0.74, 0.68, 545.21, 228.89)">e</text><text class="cls-15" transform="matrix(0.68, -0.74, 0.74, 0.68, 550.57, 223.08)"> </text><text class="cls-15" transform="matrix(0.68, -0.74, 0.74, 0.68, 553.28, 220.13)">N</text><text class="cls-16" transform="translate(577.15 337.47) rotate(-44.65)">NE <tspan class="cls-17" x="22.12" y="0">M</tspan><tspan x="34.24" y="0">aple Leaf </tspan><tspan class="cls-18" x="87.6" y="0">P</tspan><tspan x="95.65" y="0">l</tspan></text><text class="cls-19" transform="translate(733.66 228.88) rotate(91.08)">5th <tspan class="cls-20" x="34.06" y="0">A</tspan><tspan class="cls-21" x="47.29" y="0">v</tspan><tspan x="56.17" y="0">e NE</tspan></text><text class="cls-22" transform="matrix(0.98, -0.18, 0.18, 0.98, 612.03, 353.01)">NE 73</text><text class="cls-22" transform="translate(646.88 341.94) rotate(-10.3) scale(0.41)">TH</text><text class="cls-22" transform="matrix(0.98, -0.18, 0.18, 0.98, 654.92, 345.22)"><tspan class="cls-23"> </tspan><tspan class="cls-24" x="3.09" y="0">S</tspan><tspan x="10.54" y="0">t</tspan></text><text class="cls-16" transform="translate(610.45 429.62) rotate(-15.36)">NE 72</text><text class="cls-16" transform="translate(644.15 415.53) rotate(-15.36) scale(0.41)">TH</text><text class="cls-16" transform="translate(652.45 418.08) rotate(-15.36)"> <tspan class="cls-25" x="3.09" y="0">S</tspan><tspan x="10.54" y="0">t</tspan></text><text class="cls-16" transform="translate(621.04 480.88) rotate(-16.65)">NE 71</text><text class="cls-16" transform="matrix(0.39, -0.12, 0.12, 0.39, 652.54, 466.6)">TH</text><text class="cls-16" transform="translate(660.89 468.97) rotate(-16.65)"> <tspan class="cls-25" x="3.09" y="0">S</tspan><tspan x="10.54" y="0">t</tspan></text><path class="cls-26" d="M622.28,70.64,608.74,85.12v13h27.09v-13Z"/><polygon class="cls-27" points="623.62 82.81 623.62 79.66 621.03 79.66 621.03 82.81 617.63 82.81 617.63 85.39 621.03 85.39 621.03 94.69 623.62 94.69 623.62 85.39 626.94 85.39 626.94 82.81 623.62 82.81"/><text class="cls-16" transform="translate(527.28 116.15)">NE 75</text><text class="cls-16" transform="translate(563.7 111.49) scale(0.41)">TH</text><text class="cls-16" transform="translate(571.02 116.15)"> <tspan class="cls-25" x="3.09" y="0">S</tspan><tspan x="10.54" y="0">t</tspan></text><text class="cls-11" transform="translate(376.18 262.76) rotate(43.88)"><tspan class="cls-28">W</tspan><tspan x="20.09" y="0">oodl</tspan><tspan class="cls-29" x="60.65" y="0">a</tspan><tspan x="70.87" y="0">wn </tspan><tspan class="cls-30" x="103.7" y="0">A</tspan><tspan class="cls-29" x="118.82" y="0">v</tspan><tspan class="cls-31" x="128.98" y="0">e NE</tspan></text><text class="cls-32" transform="matrix(0.98, -0.18, 0.18, 0.98, 596.87, 385.25)"><tspan class="cls-33">G</tspan><tspan class="cls-34" x="11.01" y="0">r</tspan><tspan class="cls-35" x="16.46" y="0">eat </tspan><tspan class="cls-36" x="39.39" y="0">H</tspan><tspan x="51.37" y="0">all at</tspan><tspan class="cls-33" x="0" y="16">G</tspan><tspan class="cls-34" x="11.01" y="16">r</tspan><tspan class="cls-35" x="16.46" y="16">een La</tspan><tspan class="cls-37" x="57.54" y="16">k</tspan><tspan x="65.6" y="16">e</tspan></text><text class="cls-15" transform="translate(555.38 93.08)">SF<tspan class="cls-38" x="20" y="0">C</tspan><tspan class="cls-39" x="32.06" y="0">C</tspan></text></g></svg>