<svg xmlns="http://www.w3.org/2000/svg" xmlns:xlink="http://www.w3.org/1999/xlink" viewBox="0 0 800.21 608.16"><defs><style>.cls-1,.cls-2{fill:none;}.cls-2{stroke:#dae8d4;}.cls-14,.cls-2{stroke-miterlimit:10;}.cls-3{fill:#eaeaea;}.cls-4{fill:#fdd0ab;}.cls-5{fill:#e2f0dc;}.cls-6{fill:url(#New_Pattern_3);}.cls-7{fill:#e0f2f6;}.cls-8{fill:#aed1db;}.cls-9{fill:#6c6e70;}.cls-10{fill:#9a9893;}.cls-11{opacity:0.8;}.cls-12{fill:#f79344;}.cls-13{fill:#9a9793;}.cls-14{fill:#fbbb87;stroke:#a9a7a8;stroke-width:2px;}.cls-15{fill:#8c8b88;}.cls-16{opacity:0.9;}.cls-17{fill:#5d5e5e;}</style><pattern id="New_Pattern_3" data-name="New Pattern 3" width="47.88" height="47.88" patternUnits="userSpaceOnUse" viewBox="0 0 47.88 47.88"><rect class="cls-1" width="47.88" height="47.88"/><line class="cls-2" x1="218.3" y1="21.12" x2="21.12" y2="218.3"/><line class="cls-2" x1="170.41" y1="21.12" x2="-26.76" y2="218.3"/><line class="cls-2" x1="122.53" y1="21.12" x2="-74.65" y2="218.3"/><line class="cls-2" x1="74.65" y1="21.12" x2="-122.53" y2="218.3"/><line class="cls-2" x1="26.76" y1="21.12" x2="-170.41" y2="218.3"/><line class="cls-2" x1="218.3" y1="-26.76" x2="21.12" y2="170.41"/><line class="cls-2" x1="170.41" y1="-26.76" x2="-26.76" y2="170.41"/><line class="cls-2" x1="122.53" y1="-26.76" x2="-74.65" y2="170.41"/><line class="cls-2" x1="74.65" y1="-26.76" x2="-122.53" y2="170.41"/><line class="cls-2" x1="26.76" y1="-26.76" x2="-170.41" y2="170.41"/><line class="cls-2" x1="218.3" y1="-74.65" x2="21.12" y2="122.53"/><line class="cls-2" x1="170.41" y1="-74.65" x2="-26.76" y2="122.53"/><line class="cls-2" x1="122.53" y1="-74.65" x2="-74.65" y2="122.53"/><line class="cls-2" x1="74.65" y1="-74.65" x2="-122.53" y2="122.53"/><line class="cls-2" x1="26.76" y1="-74.65" x2="-170.41" y2="122.53"/><line class="cls-2" x1="218.3" y1="-122.53" x2="21.12" y2="74.65"/><line class="cls-2" x1="170.41" y1="-122.53" x2="-26.76" y2="74.65"/><line class="cls-2" x1="122.53" y1="-122.53" x2="-74.65" y2="74.65"/><line class="cls-2" x1="74.65" y1="-122.53" x2="-122.53" y2="74.65"/><line class="cls-2" x1="26.76" y1="-122.53" x2="-170.41" y2="74.65"/><line class="cls-2" x1="218.3" y1="-170.41" x2="21.12" y2="26.76"/><line class="cls-2" x1="170.41" y1="-170.41" x2="-26.76" y2="26.76"/><line class="cls-2" x1="122.53" y1="-170.41" x2="-74.65" y2="26.76"/><line class="cls-2" x1="74.65" y1="-170.41" x2="-122.53" y2="26.76"/><line class="cls-2" x1="26.76" y1="-170.41" x2="-170.41" y2="26.76"/></pattern></defs><title>map</title><g id="Streets"><rect class="cls-3" x="495.18" y="-28.11" width="228.94" height="81.33"/><polygon class="cls-3" points="126.13 -28.11 126.13 131.97 41.86 121.14 41.86 -28.11 126.13 -28.11"/><polygon class="cls-3" points="236.13 -28.11 236.13 102.22 137.13 102.22 137.13 -28.11 230.94 -28.11 236.13 -28.11"/><polygon class="cls-3" points="479.07 -28.11 479.07 102.22 362.13 102.22 362.13 -28.11 479.13 -28.11 479.07 -28.11"/><polygon class="cls-3" points="350.13 -28.11 350.13 102.22 249.13 102.22 249.13 -28.11 352.13 -28.11 350.13 -28.11"/><polygon class="cls-3" points="32.15 -28.11 32.15 120.62 0.13 119.89 0 -28.17 32.15 -28.11 32.15 -28.11"/><polygon class="cls-3" points="0.13 133.89 32.15 134.47 32.15 179.8 0.13 181.89 0.13 133.89 0.13 133.89"/><polygon class="cls-3" points="800.13 673.89 770.47 614.71 756.7 540.17 758.13 -28.11 800.21 -28.17 800.13 673.89"/><polygon class="cls-3" points="734.15 600.98 743.62 627.81 575.47 679.11 586.94 586.12 725.47 545.5 734.15 600.98"/><polygon class="cls-3" points="723.47 527.61 586.07 571.9 577.13 500.23 724.13 453.8 723.47 527.61"/><polygon class="cls-3" points="724.13 119.58 724.13 171.89 519.23 369.61 464.54 319.81 660.85 119.58 724.13 119.58"/><polygon class="cls-3" points="226.82 119.58 362.29 254.31 342.34 275.16 194.99 160.58 137.13 135.72 137.13 119.58 226.82 119.58"/><polygon class="cls-3" points="303.01 316.4 246.47 269.46 172.13 212.17 123.39 191.89 137.13 149.46 187.73 172.18 333.43 284.33 303.01 316.4"/><polygon class="cls-3" points="628.67 119.58 448.63 303.59 391.27 247.79 494.13 138.14 496.79 119.58 628.67 119.58"/><polygon class="cls-4" points="724.13 382.6 552.64 429.92 532.4 390.52 558.47 366.86 724.13 336.45 724.13 382.6"/><polygon class="cls-3" points="673.63 67.84 639.01 102.22 495.18 102.22 495.18 67.84 673.63 67.84"/><polygon class="cls-3" points="499.04 389.19 433.32 444 388.49 394.9 446.16 338.4 499.04 389.19"/><polygon class="cls-3" points="374.28 380.82 314.51 327.66 374.64 267.79 431.29 324.16 374.28 380.82"/><polygon class="cls-3" points="724.13 319.05 577.58 345.84 724.13 203 724.13 319.05"/><polygon class="cls-3" points="516.82 576.59 481.89 586.5 471.83 530.29 556.1 504.83 564.28 575.91 516.82 576.59"/><polygon class="cls-3" points="479.76 119.58 475.21 136.79 376.71 238.95 309.51 172.86 362.13 119.58 479.76 119.58"/><polygon class="cls-3" points="549.93 489.39 469.92 514.87 458.08 482.04 444.1 456.9 510.95 403.39 536.4 445.71 549.93 489.39"/><polygon class="cls-3" points="724.13 436.99 570.14 483.45 560.45 447.56 724.13 400.48 724.13 436.99"/><polygon class="cls-3" points="123.39 145.62 109.63 188.85 41.86 180.72 41.86 134.3 123.39 145.62"/><polygon class="cls-3" points="564.34 590.81 555.76 668.32 485.88 596.14 521.42 589.32 564.34 590.81"/><polygon class="cls-3" points="724.13 102.22 667.71 102.22 702.64 67.84 724.13 67.84 724.13 102.22"/><polygon class="cls-3" points="348.13 119.58 301.02 165.38 251.38 119.58 348.13 119.58"/><path class="cls-5" d="M0,207.9V759.4s245.65,5.94,288-.93,95.1-32.06,122-89.42c17.85-38.07,31.71-58,31-92.09-.37-17.28-11-59.31-13.48-66.11-7.27-20.21-29-58.45-40.27-70.57-19.67-21.13-41.77-40.63-62.43-60.79C321.22,376,280,334,256.45,314.28s-64-56.21-114.79-83.05S0,207.9,0,207.9Z"/><path class="cls-6" d="M4,218.35V752.47s237.91,5.75,279-.9,92.1-31,118.14-86.6c17.28-36.87,30.71-56.16,30-89.18-.36-16.74-10.69-57.44-13.05-64-7-19.57-28.08-56.61-39-68.35-19-20.47-40.46-39.35-60.47-58.88-3.47-3.39-43.38-44.06-66.21-63.16s-62-54.44-111.18-80.44S4,218.35,4,218.35Z"/><polygon class="cls-4" points="606.02 126.95 572.36 160.92 542.48 131.5 543.14 126.95 606.02 126.95"/><path class="cls-7" d="M115.5,706C76.84,744.61.58,740.28.58,740.28V335.84s67.71-16.67,121.13,33.76,48.42,84.29,48.42,157.28S154.15,667.31,115.5,706Z"/><path class="cls-8" d="M130.8,528.73a.68.68,0,0,0-.68.68,9.36,9.36,0,1,1-18.72,0,.68.68,0,0,0-1.37,0,9.36,9.36,0,0,1-18.69.72c0-.24,0-.48,0-.72a.68.68,0,0,0-.68-.68.79.79,0,0,0-.75.75c0,.22,0,.44,0,.66a9.36,9.36,0,0,1-18.68-.73.68.68,0,0,0-1.37,0,9.36,9.36,0,1,1-18.72,0,.68.68,0,0,0-1.37,0,9.36,9.36,0,0,1-18.72.07.68.68,0,0,0-.68-.68.65.65,0,0,0-.68.68,10.72,10.72,0,0,0,20.77,3.69,10.72,10.72,0,0,0,20.09,0,10.72,10.72,0,0,0,20,.1,10.73,10.73,0,0,0,20.06-.1,10.69,10.69,0,0,0,10,7c8.1,0,10.73-7.19,10.73-10.73A.68.68,0,0,0,130.8,528.73Z"/><path class="cls-8" d="M113.4,581.67a.68.68,0,0,0-1.37,0,9.36,9.36,0,0,1-18.69.72c0-.24,0-.48,0-.72a.68.68,0,0,0-.68-.68.79.79,0,0,0-.75.75c0,.22,0,.44,0,.66a9.36,9.36,0,0,1-18.68-.73.68.68,0,0,0-1.37,0,9.36,9.36,0,1,1-18.72,0,.68.68,0,0,0-1.37,0,9.36,9.36,0,0,1-18.72.07.68.68,0,0,0-.68-.68.65.65,0,0,0-.68.68,10.72,10.72,0,0,0,20.77,3.69,10.72,10.72,0,0,0,20.09,0,10.72,10.72,0,0,0,20,.1,10.71,10.71,0,0,0,10,6.87A10.51,10.51,0,0,0,113.4,581.67Z"/><path class="cls-8" d="M119.34,478.86a.68.68,0,0,0-1.37,0,9.36,9.36,0,0,1-18.69.72c0-.24,0-.48,0-.72a.68.68,0,0,0-.68-.68.79.79,0,0,0-.75.75c0,.22,0,.44,0,.66a9.36,9.36,0,0,1-18.68-.73.68.68,0,0,0-1.37,0,9.36,9.36,0,1,1-18.72,0,.68.68,0,0,0-1.37,0,9.36,9.36,0,0,1-18.72.07.68.68,0,0,0-.68-.68.65.65,0,0,0-.68.68,10.72,10.72,0,0,0,20.77,3.69,10.72,10.72,0,0,0,20.09,0,10.72,10.72,0,0,0,20,.1,10.71,10.71,0,0,0,10,6.87A10.51,10.51,0,0,0,119.34,478.86Z"/><path class="cls-8" d="M130.8,423.22a.68.68,0,0,0-.68.68,9.36,9.36,0,1,1-18.72,0,.68.68,0,0,0-1.37,0,9.36,9.36,0,0,1-18.69.72c0-.24,0-.48,0-.72a.68.68,0,0,0-.68-.68.79.79,0,0,0-.75.75c0,.22,0,.44,0,.66a9.36,9.36,0,0,1-18.68-.73.68.68,0,0,0-1.37,0,9.36,9.36,0,1,1-18.72,0,.68.68,0,0,0-1.37,0,9.36,9.36,0,0,1-18.72.07.68.68,0,0,0-.68-.68.65.65,0,0,0-.68.68,10.72,10.72,0,0,0,20.77,3.69,10.72,10.72,0,0,0,20.09,0,10.72,10.72,0,0,0,20,.1,10.73,10.73,0,0,0,20.06-.1,10.69,10.69,0,0,0,10,7c8.1,0,10.73-7.19,10.73-10.73A.68.68,0,0,0,130.8,423.22Z"/><path class="cls-8" d="M48.5,384.42a10.78,10.78,0,0,0,10-7,10.72,10.72,0,0,0,20.09,0A10.72,10.72,0,0,0,99.4,373.7a.68.68,0,0,0-.68-.68.65.65,0,0,0-.68.68,9.36,9.36,0,1,1-18.72,0,.68.68,0,0,0-1.37,0,9.36,9.36,0,0,1-18.72,0,.68.68,0,0,0-1.37,0,9.36,9.36,0,0,1-18.72.07.68.68,0,0,0-.68-.68.65.65,0,0,0-.68.68A10.69,10.69,0,0,0,48.5,384.42Z"/><polygon class="cls-4" points="714.59 521.99 657.51 538.29 654.01 484.3 713.59 466.41 714.59 521.99"/><path class="cls-9" d="M209.33,533.38a13.9,13.9,0,0,1,8.78,3.38.63.63,0,0,1,.07,1l-2.84,3a.76.76,0,0,1-1,0,6.62,6.62,0,0,0-4.72-1.73,7.22,7.22,0,0,0,0,14.43,8.51,8.51,0,0,0,3.2-.58v-2.09h-2.27a.65.65,0,0,1-.68-.65v-3.56a.66.66,0,0,1,.68-.68h7.23a.68.68,0,0,1,.65.68l0,9.68a.89.89,0,0,1-.29.58,18.19,18.19,0,0,1-8.93,2.34,12.92,12.92,0,1,1,0-25.84Z"/><path class="cls-9" d="M223.48,534.39a.68.68,0,0,1,.68-.68h10.76a7.69,7.69,0,0,1,2.52,15l4.93,9.14a.68.68,0,0,1-.61,1H237a.66.66,0,0,1-.58-.32L231.61,549h-2.48v9.18a.71.71,0,0,1-.68.68h-4.28a.68.68,0,0,1-.68-.68Zm11,10.08a2.89,2.89,0,0,0,2.74-2.88,2.76,2.76,0,0,0-2.74-2.74h-5.33v5.62Z"/><path class="cls-9" d="M247.59,534.39a.68.68,0,0,1,.68-.68h14.9a.68.68,0,0,1,.68.68v3.92a.68.68,0,0,1-.68.68h-10v4.46h8.21a.71.71,0,0,1,.68.68v3.92a.68.68,0,0,1-.68.68h-8.21v4.86h10a.68.68,0,0,1,.68.68v3.92a.68.68,0,0,1-.68.68h-14.9a.68.68,0,0,1-.68-.68Z"/><path class="cls-9" d="M268.69,534.39a.68.68,0,0,1,.68-.68h14.9a.68.68,0,0,1,.68.68v3.92a.68.68,0,0,1-.68.68h-10v4.46h8.21a.71.71,0,0,1,.68.68v3.92a.68.68,0,0,1-.68.68h-8.21v4.86h10a.68.68,0,0,1,.68.68v3.92a.68.68,0,0,1-.68.68h-14.9a.68.68,0,0,1-.68-.68Z"/><path class="cls-9" d="M289.75,534a.68.68,0,0,1,.68-.65h.9l14.36,13.82h0V534.39a.68.68,0,0,1,.68-.68h4.32a.71.71,0,0,1,.68.68v24.22a.68.68,0,0,1-.68.65h-.58a1.07,1.07,0,0,1-.47-.18l-14.22-14.29h0v13.43a.68.68,0,0,1-.68.68h-4.28a.71.71,0,0,1-.68-.68Z"/><path class="cls-9" d="M325.57,534.39a.68.68,0,0,1,.68-.68h4.28a.71.71,0,0,1,.68.68v19.22h8.57a.68.68,0,0,1,.68.68v3.92a.68.68,0,0,1-.68.68H326.25a.68.68,0,0,1-.68-.68Z"/><path class="cls-9" d="M341.91,558l11.27-24.22a.73.73,0,0,1,.61-.4h.36a.73.73,0,0,1,.61.4L366,558a.64.64,0,0,1-.61.94h-4c-.65,0-.94-.22-1.26-.9l-1.3-2.84h-9.79l-1.3,2.88a1.34,1.34,0,0,1-1.3.86h-4A.64.64,0,0,1,341.91,558Zm14.79-7.7L354,544.32h0l-2.7,5.94Z"/><path class="cls-9" d="M369,534.57a.85.85,0,0,1,.86-.86h4.21a.88.88,0,0,1,.86.86V544l8-10a1.07,1.07,0,0,1,.68-.36h4.54a.83.83,0,0,1,.65,1.33l-8.42,10.55,9.18,12a.84.84,0,0,1-.68,1.33h-5a1,1,0,0,1-.65-.25l-8.31-11.3V558a.88.88,0,0,1-.86.86h-4.21A.85.85,0,0,1,369,558Z"/><path class="cls-9" d="M393.21,534.39a.68.68,0,0,1,.68-.68h14.9a.68.68,0,0,1,.68.68v3.92a.68.68,0,0,1-.68.68h-10v4.46H407a.71.71,0,0,1,.68.68v3.92a.68.68,0,0,1-.68.68h-8.21v4.86h10a.68.68,0,0,1,.68.68v3.92a.68.68,0,0,1-.68.68H393.9a.68.68,0,0,1-.68-.68Z"/><path class="cls-10" d="M321.22,340.31a.46.46,0,0,1,.65,0l7,7.08a.45.45,0,0,1,0,.64L327,349.87a.46.46,0,0,1-.65,0l-4.67-4.74-2.12,2.09,3.84,3.9a.47.47,0,0,1,0,.64l-1.86,1.84a.46.46,0,0,1-.65,0l-3.84-3.9L314.72,352l4.67,4.74a.46.46,0,0,1,0,.64l-1.86,1.84a.46.46,0,0,1-.64,0l-7-7.08a.46.46,0,0,1,0-.65Z"/><path class="cls-10" d="M325,358.76a4.51,4.51,0,0,1,1,1.59c.67-.65.92-1.09.11-1.92a10.24,10.24,0,0,0-1.93-1.47c-.34-.17-.26-.48,0-.76l.93-1.21a.51.51,0,0,1,.72-.19,16.82,16.82,0,0,1,2.48,2c2.07,2.13,1.93,3.78-.1,5.75l-3.8,3.7a.47.47,0,0,1-.65,0l-.74-.76A.45.45,0,0,1,323,365l.23-.69a4,4,0,0,1-2.88-1.25,3.11,3.11,0,0,1,0-4.58A3.2,3.2,0,0,1,325,358.76ZM322.59,362a1,1,0,1,0,1.48-1.44,1,1,0,0,0-1.44,0A1,1,0,0,0,322.59,362Z"/><path class="cls-10" d="M326.21,367.26l1.78-.54a.41.41,0,0,1,.49.23,5.31,5.31,0,0,0,1.05,2,.42.42,0,0,0,.63,0c.17-.17.31-.5-.22-1.69-.83-1.8-.62-3.13.45-4.17s2.89-1.19,4.69.68a6.36,6.36,0,0,1,1.68,2.81c0,.26,0,.53-.27.59l-1.79.49a.42.42,0,0,1-.45-.26,5.53,5.53,0,0,0-1-1.85c-.22-.22-.42-.33-.61-.15s-.16.52.2,1.31c.87,1.87,1.25,3.37-.13,4.7-1.21,1.17-3.13,1.15-5-.8a5.79,5.79,0,0,1-1.7-2.9C325.95,367.51,326,367.33,326.21,367.26Z"/><path class="cls-10" d="M337,370.5l-.43-.45a.45.45,0,0,1,0-.63l1.54-1.48a.44.44,0,0,1,.63,0l.43.45,1.92-1.84a.47.47,0,0,1,.64,0l1.78,1.85a.45.45,0,0,1,0,.63l-1.92,1.84,1.23,1.28a.44.44,0,0,1,0,.64l-1.54,1.48a.45.45,0,0,1-.64,0L339.35,373l-2.16,2.08c-.38.37-.17.66,0,.87a4.72,4.72,0,0,0,.77.56.42.42,0,0,1,.14.6l-1.07,1.76a.48.48,0,0,1-.61.16,12.31,12.31,0,0,1-2.39-1.73c-1.26-1.32-1.16-2.87.41-4.39Z"/><path class="cls-10" d="M359.25,378.52a9.26,9.26,0,0,1,2.52,5.75.42.42,0,0,1-.43.49l-2.77.07a.51.51,0,0,1-.47-.44,4.41,4.41,0,0,0-1.4-3,4.81,4.81,0,0,0-6.82,6.79,5.67,5.67,0,0,0,1.78,1.25l1-1-1.06-1.07a.44.44,0,0,1,0-.63l1.69-1.67a.44.44,0,0,1,.64,0l3.4,3.42a.45.45,0,0,1,0,.63l-4.57,4.56a.59.59,0,0,1-.41.13,12.13,12.13,0,0,1-5.3-3.13,8.62,8.62,0,0,1,12.23-12.14Z"/><path class="cls-10" d="M359.46,389.85a.46.46,0,0,1,.65,0l.8.79a.44.44,0,0,1,.1.51l-.44,1.05a3.31,3.31,0,0,1,3,.71c.94.93,1.27,1.93.64,2.08l-2.19.54a.41.41,0,0,1-.53-.22,1.73,1.73,0,0,0-.33-.49,1.28,1.28,0,0,0-1.87.08l-3.49,3.53c-.2.21-.42.22-.7,0l-1.74-1.72a.47.47,0,0,1,0-.64Z"/><path class="cls-10" d="M368.77,398.07a4.48,4.48,0,0,1,.09,6.41,6,6,0,0,1-.49.43.46.46,0,0,1-.61,0l-4.11-4a1.78,1.78,0,0,0,.21,2.42,3.14,3.14,0,0,0,1.6.77c.27,0,.44.2.43.42l-.15,1.87a.52.52,0,0,1-.51.48,4.89,4.89,0,0,1-3.49-1.52,5,5,0,0,1,7-7.22ZM367,401.52a1.29,1.29,0,0,0-.12-1.7,1.34,1.34,0,0,0-1.71-.11Z"/><path class="cls-10" d="M376.29,405.44a4.49,4.49,0,0,1,.08,6.42,6.06,6.06,0,0,1-.49.43.46.46,0,0,1-.61,0l-4.11-4a1.78,1.78,0,0,0,.21,2.43,3.13,3.13,0,0,0,1.6.77c.27,0,.44.2.43.42l-.16,1.87a.52.52,0,0,1-.51.48,4.88,4.88,0,0,1-3.49-1.52,5,5,0,0,1,7-7.22Zm-1.76,3.46a1.29,1.29,0,0,0-.12-1.7,1.34,1.34,0,0,0-1.72-.11Z"/><path class="cls-10" d="M380.3,410.38a.46.46,0,0,1,.65,0l.8.8a.53.53,0,0,1,.1.51l-.41,1a4.52,4.52,0,0,1,3.45,1.33c2.11,2.1,1.62,4.83-.31,6.77l-3.08,3.1a.47.47,0,0,1-.64,0L379,422a.46.46,0,0,1,0-.64l3.17-3.18a1.63,1.63,0,0,0,.11-2.43,1.75,1.75,0,0,0-2.48-.1l-3.25,3.27a.41.41,0,0,1-.63,0l-1.79-1.78a.47.47,0,0,1,0-.64Z"/><path class="cls-10" d="M398.77,418.7a.46.46,0,0,1,.65,0l2,2.05a.47.47,0,0,1,0,.65l-9.21,8.92,4,4.1a.46.46,0,0,1,0,.65l-1.88,1.82a.46.46,0,0,1-.65,0l-6.28-6.49a.46.46,0,0,1,0-.64Z"/><path class="cls-10" d="M401.42,436.21a4.53,4.53,0,0,1,1,1.61c.68-.64.94-1.07.15-1.91a10.16,10.16,0,0,0-1.9-1.51c-.33-.18-.25-.48,0-.77l1-1.19a.51.51,0,0,1,.72-.18,16.73,16.73,0,0,1,2.44,2.09c2,2.17,1.86,3.81-.21,5.75l-3.87,3.62a.47.47,0,0,1-.64,0l-.72-.77a.45.45,0,0,1-.07-.53l.24-.69a4,4,0,0,1-2.86-1.3,3.12,3.12,0,0,1,.05-4.58A3.2,3.2,0,0,1,401.42,436.21Zm-2.52,3.21a1,1,0,1,0,1.51-1.41,1,1,0,0,0-1.44-.07A1,1,0,0,0,398.9,439.42Z"/><path class="cls-10" d="M414.07,434.85a.47.47,0,0,1,.64,0l1.78,2a.47.47,0,0,1,0,.64l-7.74,6.93,4.44-.08a.8.8,0,0,1,.61.25l1.79,2a.44.44,0,0,1-.31.76l-4.85.09-.76,5.84a.43.43,0,0,1-.78.21l-2.16-2.41a.59.59,0,0,1-.1-.4l.93-5.22-2.91,2.61a.47.47,0,0,1-.64,0l-1.78-2a.47.47,0,0,1,0-.64Z"/><path class="cls-10" d="M419.9,452.56a4.48,4.48,0,0,1-1.15,6.31,5.64,5.64,0,0,1-.56.33.46.46,0,0,1-.59-.15l-3.25-4.75a1.78,1.78,0,0,0-.26,2.42,3.12,3.12,0,0,0,1.42,1.06c.26.08.4.28.34.5l-.51,1.8a.52.52,0,0,1-.59.37,4.88,4.88,0,0,1-3.13-2.16,5,5,0,0,1,8.29-5.73Zm-2.39,3.06a1.29,1.29,0,0,0,.21-1.69,1.34,1.34,0,0,0-1.66-.43Z"/><path class="cls-10" d="M432.48,460.07a.45.45,0,0,1,.61.15l2.92,5.07a8.4,8.4,0,1,1-14.56,8.39l-2.92-5.07a.45.45,0,0,1,.18-.6Zm-8.06,11.63a4.86,4.86,0,0,0,8.42-4.85l-1.15-2-8.42,4.85Z"/><path class="cls-10" d="M434.44,478.12a.45.45,0,0,1,.62.19l.53,1a.44.44,0,0,1-.05.52l-.73.88a3.31,3.31,0,0,1,2.63,1.56c.62,1.16.64,2.22,0,2.18l-2.25-.13a.41.41,0,0,1-.44-.37,1.7,1.7,0,0,0-.17-.56,1.27,1.27,0,0,0-1.81-.48l-4.38,2.34c-.25.14-.47.09-.65-.25l-1.15-2.16a.47.47,0,0,1,.19-.62Z"/><path class="cls-10" d="M448,487.83a.45.45,0,0,1,.59.23l.26.54-4.24,12.6v0l7.71-3.64a.46.46,0,0,1,.61.22l1.23,2.6a.47.47,0,0,1-.22.61l-14.61,6.9a.45.45,0,0,1-.59-.23l-.16-.35a.74.74,0,0,1,0-.33l4.57-12.65v0l-8.1,3.83a.46.46,0,0,1-.61-.22l-1.22-2.58a.47.47,0,0,1,.22-.61Z"/><path class="cls-10" d="M444.81,510.45a2.28,2.28,0,1,1-4.21,1.77,2.29,2.29,0,0,1,1.21-3A2.31,2.31,0,0,1,444.81,510.45Z"/><path class="cls-10" d="M665.65,495.57a.46.46,0,0,1,.43-.48l5.78-.3a5.35,5.35,0,1,1,.58,10.69l-2.52.13.29,5.63a.47.47,0,0,1-.43.48l-2.83.15a.46.46,0,0,1-.48-.43ZM672,502a1.88,1.88,0,0,0,1.79-2,1.83,1.83,0,0,0-2-1.67l-2.28.12.19,3.67Z"/><path class="cls-10" d="M687.16,493.75a8.07,8.07,0,0,1,5.92,1.92.45.45,0,0,1,.06.67l-1.77,2a.42.42,0,0,1-.6,0,4.9,4.9,0,0,0-3.3-1.05,4.91,4.91,0,0,0,.54,9.8,5.08,5.08,0,0,0,3.15-1.32.47.47,0,0,1,.63,0l2,1.89a.48.48,0,0,1,0,.65,8.23,8.23,0,0,1-5.7,2.63,8.64,8.64,0,1,1-.91-17.26Z"/><path class="cls-10" d="M703.22,492.9a8.07,8.07,0,0,1,5.92,1.93.45.45,0,0,1,.06.67l-1.77,2a.42.42,0,0,1-.6,0,4.89,4.89,0,0,0-3.3-1.05,4.91,4.91,0,0,0,.54,9.8,5.07,5.07,0,0,0,3.15-1.32.48.48,0,0,1,.63,0l2,1.89a.48.48,0,0,1,0,.65,8.24,8.24,0,0,1-5.7,2.63,8.64,8.64,0,1,1-.91-17.26Z"/><g class="cls-11"><path class="cls-12" d="M571,419.6a21.65,21.65,0,1,1,21.65-21.65A21.67,21.67,0,0,1,571,419.6Zm0-39.74a18.09,18.09,0,1,0,18.09,18.09A18.11,18.11,0,0,0,571,379.86Z"/></g><polygon class="cls-12" points="571.05 384.95 575.27 393.51 584.71 394.88 577.88 401.54 579.49 410.94 571.05 406.5 562.6 410.94 564.21 401.54 557.38 394.88 566.82 393.51 571.05 384.95"/><path class="cls-10" d="M569.42,133.64a.46.46,0,0,1,.46-.46h5.78a5.35,5.35,0,1,1,0,10.7h-2.52v5.64a.47.47,0,0,1-.46.46h-2.83a.46.46,0,0,1-.46-.46Zm6,6.74a1.89,1.89,0,0,0,1.9-1.9,1.83,1.83,0,0,0-1.9-1.78h-2.28v3.67Z"/><rect class="cls-4" x="622.18" y="17.85" width="33.9" height="29.35"/><path class="cls-10" d="M634.42,25.54a.46.46,0,0,1,.46-.46h5.78a5.35,5.35,0,1,1,0,10.7h-2.52v5.64a.47.47,0,0,1-.46.46h-2.83a.46.46,0,0,1-.46-.46Zm6,6.74a1.89,1.89,0,0,0,1.9-1.9,1.83,1.83,0,0,0-1.9-1.78h-2.28v3.67Z"/><path class="cls-10" d="M514,258.49l-1.4-1.29-1.29-9.73a.32.32,0,0,1,.1-.27l.88-1a.34.34,0,0,1,.48,0l5.44,5,1-1a.33.33,0,0,1,.47,0l1.1,1a.34.34,0,0,1,0,.48l-1,1,1.64,1.49a.35.35,0,0,1,0,.48l-1.3,1.42a.35.35,0,0,1-.48,0l-1.62-1.49-3.57,3.88A.34.34,0,0,1,514,258.49Zm2.46-5.46L514,250.76l.52,4.37Z"/><path class="cls-10" d="M516.78,244.9l-.71.77a.14.14,0,0,1-.2,0l-.59-.54a.14.14,0,0,1,0-.2l2.21-2.4a.14.14,0,0,1,.2,0l.59.54a.14.14,0,0,1,0,.2l-.71.77,2.88,2.65a.14.14,0,0,1,0,.2l-.6.65a.14.14,0,0,1-.2,0Z"/><path class="cls-10" d="M518.17,242a.14.14,0,0,1,0-.2l.59-.64a.14.14,0,0,1,.2,0l1.36,1.25,1.42-1.54-1.36-1.25a.14.14,0,0,1,0-.2l.59-.64a.14.14,0,0,1,.2,0l3.57,3.29a.14.14,0,0,1,0,.2l-.59.64a.14.14,0,0,1-.2,0l-1.42-1.31-1.42,1.54,1.42,1.31a.14.14,0,0,1,0,.2l-.59.64a.14.14,0,0,1-.2,0Z"/><path class="cls-10" d="M532,242.56l-5.09-12.35a.36.36,0,0,1,.06-.36l.12-.13a.37.37,0,0,1,.35-.09l12.72,4.07a.32.32,0,0,1,.14.54l-1.35,1.47a.61.61,0,0,1-.76.16l-1.49-.49-3.32,3.6.62,1.45a.67.67,0,0,1-.12.77l-1.34,1.46A.32.32,0,0,1,532,242.56Zm2.18-8-3.11-1h0l1.27,3Z"/><path class="cls-10" d="M535.17,229.87a.33.33,0,0,1-.15-.55l1.37-1.48a.4.4,0,0,1,.37-.1l2.52.88,0,0-1-2.49c-.09-.23,0-.31.18-.49l1.23-1.34a.33.33,0,0,1,.57.1l2.62,7.06a.42.42,0,0,1-.08.35l-.06.07a.42.42,0,0,1-.34.1Z"/><path class="cls-10" d="M542.6,220.83a3.36,3.36,0,0,1,4.81-.22,4.62,4.62,0,0,1,.33.36.35.35,0,0,1,0,.46l-2.93,3.18a1.34,1.34,0,0,0,1.81-.21,2.33,2.33,0,0,0,.54-1.22c0-.21.14-.34.3-.33l1.41.07a.39.39,0,0,1,.37.37,3.66,3.66,0,0,1-1.05,2.65,3.78,3.78,0,0,1-5.58-5.1Zm2.64,1.23a1,1,0,0,0-1.27.13,1,1,0,0,0,0,1.29Z"/><path class="cls-10" d="M545.16,210.57a.34.34,0,0,1,0-.47l.31-.33,9.95-.6h0l-4.7-4.33a.34.34,0,0,1,0-.48l1.46-1.59a.35.35,0,0,1,.48,0l8.91,8.21a.34.34,0,0,1,0,.47l-.2.21a.53.53,0,0,1-.22.11l-10.07.39h0l4.94,4.55a.34.34,0,0,1,0,.48l-1.45,1.57a.36.36,0,0,1-.48,0Z"/><path class="cls-10" d="M571.19,329.74a.26.26,0,0,1,0-.37l.25-.25,7.76-.1h0l-3.49-3.54a.26.26,0,0,1,0-.38l1.2-1.18a.28.28,0,0,1,.38,0l6.63,6.71a.27.27,0,0,1,0,.37l-.16.16a.42.42,0,0,1-.18.08l-7.84-.07h0l3.67,3.72a.27.27,0,0,1,0,.38l-1.19,1.17a.27.27,0,0,1-.37,0Z"/><path class="cls-10" d="M579,322.24a.27.27,0,0,1,0-.38l4.13-4.08a.27.27,0,0,1,.38,0l1.07,1.09a.27.27,0,0,1,0,.38L581.82,322l1.22,1.24,2.27-2.25a.27.27,0,0,1,.38,0l1.07,1.09a.27.27,0,0,1,0,.38l-2.27,2.25,1.33,1.35,2.76-2.73a.27.27,0,0,1,.38,0l1.07,1.09a.27.27,0,0,1,0,.38l-4.12,4.08a.26.26,0,0,1-.37,0Z"/><path class="cls-10" d="M587.6,313.49a.27.27,0,0,1,0-.34l.16-.16a.31.31,0,0,1,.27-.07l6.56,2,0,0-1.94-6.59a.31.31,0,0,1,.07-.27l.16-.16a.27.27,0,0,1,.34,0l7.74,5.58a.26.26,0,0,1,0,.41L599.85,315a.28.28,0,0,1-.35,0L596,312.44l0,0,1.51,4.88a.32.32,0,0,1-.06.28l-.18.18a.3.3,0,0,1-.28.06l-4.87-1.56,0,0,2.6,3.51a.27.27,0,0,1,0,.35l-1.18,1.16a.26.26,0,0,1-.41,0Z"/><path class="cls-10" d="M600.73,309.14a2.64,2.64,0,0,1,.93-.6c-.38-.39-.64-.53-1.12-.06a6,6,0,0,0-.85,1.13c-.1.2-.28.16-.45,0l-.71-.54a.3.3,0,0,1-.12-.42,9.82,9.82,0,0,1,1.18-1.46c1.23-1.22,2.2-1.15,3.36,0l2.18,2.2a.28.28,0,0,1,0,.38l-.44.43a.26.26,0,0,1-.31,0l-.41-.13a2.33,2.33,0,0,1-.71,1.69,1.82,1.82,0,0,1-2.67,0A1.87,1.87,0,0,1,600.73,309.14Zm1.91,1.42a.6.6,0,1,0-.85-.86.6.6,0,0,0,0,.84A.61.61,0,0,0,602.64,310.56Z"/><path class="cls-10" d="M610.58,310a.28.28,0,0,1,0,.38l-1.11,1.09a.28.28,0,0,1-.38,0l-6.52-6.6a.27.27,0,0,1,0-.38L603,304a.35.35,0,0,1,.4,0l.45.21a2.42,2.42,0,0,1,.71-1.95,2.84,2.84,0,0,1,4,.14,2.69,2.69,0,0,1,.08,4.05,2.83,2.83,0,0,1-1,.63Zm-3.3-4.62a1.11,1.11,0,0,0,0-1.59,1.13,1.13,0,1,0-1.61,1.59A1.1,1.1,0,0,0,607.28,305.37Z"/><path class="cls-10" d="M604.7,296.85a.28.28,0,0,1,0-.38l1.1-1.08a.27.27,0,0,1,.38,0l6.52,6.6a.28.28,0,0,1,0,.38l-1.1,1.08a.27.27,0,0,1-.37,0Z"/><path class="cls-10" d="M611.68,295.29a2.62,2.62,0,0,1,3.75,0,3.54,3.54,0,0,1,.24.29.27.27,0,0,1,0,.36l-2.39,2.36a1,1,0,0,0,1.42-.1,1.84,1.84,0,0,0,.46-.93c0-.16.12-.26.25-.25l1.09.11a.3.3,0,0,1,.28.3,2.86,2.86,0,0,1-.91,2,2.94,2.94,0,0,1-4.16-4.17Zm2,1.05a.75.75,0,0,0-1,.05.78.78,0,0,0-.08,1Z"/><path class="cls-10" d="M614.14,287.53a.27.27,0,0,1,0-.38l1.19-1.17a.27.27,0,0,1,.38,0L621,291.3l2.37-2.34a.27.27,0,0,1,.38,0l1.07,1.09a.27.27,0,0,1,0,.38l-3.75,3.7a.26.26,0,0,1-.37,0Z"/><path class="cls-10" d="M623.34,283.77a2.62,2.62,0,0,1,3.74,0c.07.07.19.21.25.29a.27.27,0,0,1,0,.36l-2.39,2.36a1,1,0,0,0,1.42-.1,1.84,1.84,0,0,0,.46-.93c0-.16.12-.26.25-.25l1.09.11a.3.3,0,0,1,.28.3,2.85,2.85,0,0,1-.91,2,2.94,2.94,0,0,1-4.15-4.17Zm2,1.05a.75.75,0,0,0-1,.05.78.78,0,0,0-.08,1Z"/><path class="cls-10" d="M628.66,281.55a2.62,2.62,0,0,1,.92-.6c-.38-.39-.64-.53-1.12-.06a5.91,5.91,0,0,0-.85,1.13c-.1.2-.28.16-.45,0l-.71-.54a.3.3,0,0,1-.12-.42,10,10,0,0,1,1.18-1.46c1.24-1.22,2.2-1.15,3.36,0l2.18,2.2a.28.28,0,0,1,0,.38l-.44.43a.26.26,0,0,1-.31,0l-.4-.13a2.35,2.35,0,0,1-.71,1.69,1.82,1.82,0,0,1-2.68,0A1.87,1.87,0,0,1,628.66,281.55Zm1.91,1.42a.62.62,0,0,0,0-.87.62.62,0,0,0-.85,0,.59.59,0,0,0,0,.84A.61.61,0,0,0,630.58,283Z"/><path class="cls-10" d="M631.78,278.13l-.21.21a.26.26,0,0,1-.37,0l-.88-.89a.26.26,0,0,1,0-.38l.21-.21-.9-.92a2.77,2.77,0,0,1-.12-4.17,3,3,0,0,1,1.59-.82.28.28,0,0,1,.27.19l.4,1.24a.26.26,0,0,1-.16.3,1.59,1.59,0,0,0-.68.35c-.42.41-.25.92.23,1.41l.91.92.92-.91a.26.26,0,0,1,.38,0l.88.89a.27.27,0,0,1,0,.38l-.92.91,2.5,2.53a.27.27,0,0,1,0,.38l-1.15,1.13a.27.27,0,0,1-.37,0Z"/><path class="cls-10" d="M633.62,268.28a.26.26,0,0,1,0-.38l2.4-2.37a3.12,3.12,0,1,1,4.4,4.43l-1,1,2.31,2.34a.28.28,0,0,1,0,.38l-1.18,1.16a.27.27,0,0,1-.38,0Zm5.27.33a1.1,1.1,0,0,0,0-1.56,1.07,1.07,0,0,0-1.52,0l-.95.94,1.51,1.52Z"/><path class="cls-10" d="M639,262.94a.27.27,0,0,1,0-.38l1.1-1.08a.27.27,0,0,1,.38,0l6.52,6.6a.28.28,0,0,1,0,.38l-1.1,1.08a.28.28,0,0,1-.38,0Z"/><path class="cls-10" d="M735.89,230l1.28,1.35a.41.41,0,0,1,.05.51,6.07,6.07,0,0,0-1.05,2.48,1.94,1.94,0,0,0,2,2,2,2,0,0,0,2.08-2.12l.06-3.23a.7.7,0,0,1,.75-.64l6.51.12a.4.4,0,0,1,.39.41l-.13,6.76a.4.4,0,0,1-.41.39l-1.85,0a.4.4,0,0,1-.39-.41l.08-4.32-2.25,0,0,1.49a4.57,4.57,0,0,1-4.88,4.7,5,5,0,0,1-4.71-5.28,5.54,5.54,0,0,1,1.82-4.12C735.5,229.73,735.64,229.71,735.89,230Z"/><path class="cls-10" d="M739.16,241.52V241a.4.4,0,0,1,.41-.37l1.87,0a.38.38,0,0,1,.39.38v.54l2.33,0a.41.41,0,0,1,.39.41l0,2.25a.4.4,0,0,1-.41.37l-2.33,0,0,1.55a.39.39,0,0,1-.41.39l-1.87,0a.4.4,0,0,1-.39-.41l0-1.55-2.62,0c-.46,0-.51.3-.51.56a4.14,4.14,0,0,0,.13.82.37.37,0,0,1-.28.46l-1.75.43a.42.42,0,0,1-.48-.28,10.83,10.83,0,0,1-.41-2.55c0-1.6,1.05-2.5,3-2.46Z"/><path class="cls-10" d="M747.59,248.57a.41.41,0,0,1,.39.41l0,2.33a.41.41,0,0,1-.41.39l-6.17-.12a4.45,4.45,0,0,1,.45,2c-.05,2.65-2.16,4-4.49,3.93l-3.8-.07a.41.41,0,0,1-.39-.41l0-2.23a.4.4,0,0,1,.41-.39l3.84.07a1.55,1.55,0,0,0,1.69-1.5c0-.67-.35-1.41-1.63-1.44l-3.84-.07c-.27,0-.4-.11-.39-.47l0-2.27a.41.41,0,0,1,.41-.39Z"/><path class="cls-10" d="M733.57,262.86l14,6.84a.42.42,0,0,1,.22.36v.21a.43.43,0,0,1-.24.35l-14.25,6.3a.37.37,0,0,1-.54-.37l0-2.33c0-.38.14-.54.54-.72l1.67-.72.11-5.71-1.67-.79a.78.78,0,0,1-.49-.76l0-2.31A.37.37,0,0,1,733.57,262.86Zm4.33,8.71,3.49-1.53v0L738,268.38Z"/><path class="cls-10" d="M740.6,276.39a.38.38,0,0,1,.56.37l0,2.35a.46.46,0,0,1-.24.37L738,280.67s0,0,0,.06l2.83,1.38c.25.13.23.28.22.57l0,2.12a.38.38,0,0,1-.57.35L732.68,281a.49.49,0,0,1-.2-.36v-.11a.49.49,0,0,1,.22-.35Z"/><path class="cls-10" d="M741.12,290.05a3.92,3.92,0,0,1-4,3.92,5,5,0,0,1-.57-.05.4.4,0,0,1-.35-.41l.1-5a1.56,1.56,0,0,0-1.42,1.59,2.73,2.73,0,0,0,.48,1.48.37.37,0,0,1,0,.53l-1.28,1a.45.45,0,0,1-.61,0,4.28,4.28,0,0,1-1.14-3.13,4.41,4.41,0,0,1,8.82.12Zm-3.25,1a1.13,1.13,0,0,0,1-1.09,1.17,1.17,0,0,0-1-1.15Z"/><path class="cls-10" d="M746.83,301a.39.39,0,0,1,.37.4v.53L739,310.11v0l7.45.14a.4.4,0,0,1,.39.41l0,2.52a.41.41,0,0,1-.41.39l-14.13-.27a.39.39,0,0,1-.37-.41v-.34a.63.63,0,0,1,.11-.27l8.49-8.13v0l-7.83-.15a.4.4,0,0,1-.39-.41l0-2.5a.41.41,0,0,1,.41-.39Z"/><path class="cls-10" d="M746.29,317.21a.4.4,0,0,1,.39.41l-.16,8.69a.4.4,0,0,1-.41.39l-2.29,0a.4.4,0,0,1-.39-.41l.11-5.81-2.6,0-.09,4.79a.41.41,0,0,1-.41.39l-2.29,0a.4.4,0,0,1-.39-.41l.09-4.79-2.83-.05-.11,5.81a.4.4,0,0,1-.41.39l-2.29,0a.4.4,0,0,1-.39-.41l.17-8.69a.4.4,0,0,1,.41-.39Z"/><path class="cls-13" d="M611.46,343.26a.26.26,0,0,1,.22-.3l.34-.06,6.46,4.29h0l-.89-4.89a.27.27,0,0,1,.21-.31l1.65-.3a.28.28,0,0,1,.31.21l1.69,9.27a.26.26,0,0,1-.22.3l-.22,0a.4.4,0,0,1-.19,0L614.41,347h0l.93,5.14a.27.27,0,0,1-.21.31l-1.64.3a.28.28,0,0,1-.31-.21Z"/><path class="cls-13" d="M622.16,341.48a.26.26,0,0,1,.21-.31l5.71-1a.27.27,0,0,1,.31.21l.27,1.5a.26.26,0,0,1-.21.31l-3.82.69.31,1.71,3.14-.57a.28.28,0,0,1,.31.21l.27,1.5a.27.27,0,0,1-.21.31l-3.14.57.34,1.86,3.82-.69a.27.27,0,0,1,.31.21l.27,1.5a.27.27,0,0,1-.21.31l-5.71,1a.27.27,0,0,1-.31-.21Z"/><path class="cls-13" d="M634.23,348.55l2.14-7.82-3.2.58a.27.27,0,0,1-.31-.21l-.23-1.24a.28.28,0,0,1,.21-.31l5.82-1.06a.28.28,0,0,1,.31.21l0,.1-2.56,9.36c-.1.37-.29.46-.49.5l-1.37.25a.27.27,0,0,1-.32-.21Z"/><path class="cls-13" d="M640.76,346.31l.71-1a.26.26,0,0,1,.34-.09,3.36,3.36,0,0,0,1.63.36,1.22,1.22,0,0,0,1-1.32c-.11-.61-.82-1-1.84-.82l-.77.14a.28.28,0,0,1-.31-.21l-.21-1.14a.27.27,0,0,1,.21-.31l.77-.14c1-.18,1.39-.74,1.28-1.33a1.08,1.08,0,0,0-1.29-.83,1.59,1.59,0,0,0-1.1.77.27.27,0,0,1-.37.08l-1-.67a.25.25,0,0,1-.07-.36,4.12,4.12,0,0,1,2.41-1.69,2.75,2.75,0,0,1,3.44,2,2.53,2.53,0,0,1-1,2.39v0a2.79,2.79,0,0,1,2.09,2c.27,1.5-.83,2.87-2.73,3.22a3.64,3.64,0,0,1-3.13-.7A.28.28,0,0,1,640.76,346.31Z"/><path class="cls-13" d="M647.31,338.66l-.8.15a.11.11,0,0,1-.13-.09l-.11-.61a.11.11,0,0,1,.09-.13l2.49-.45a.11.11,0,0,1,.13.09l.11.61a.11.11,0,0,1-.09.13l-.8.15.54,3a.11.11,0,0,1-.09.13l-.67.12a.11.11,0,0,1-.13-.09Z"/><path class="cls-13" d="M649.54,337.51a.11.11,0,0,1,.09-.13l.67-.12a.11.11,0,0,1,.13.09l.26,1.41,1.61-.29-.26-1.41a.11.11,0,0,1,.09-.13l.67-.12a.11.11,0,0,1,.13.09l.68,3.72a.11.11,0,0,1-.09.13l-.67.12a.11.11,0,0,1-.12-.09l-.27-1.48-1.61.29.27,1.48a.11.11,0,0,1-.09.13l-.67.12a.11.11,0,0,1-.12-.09Z"/><path class="cls-13" d="M658.36,343.24l.44-1.26a.36.36,0,0,1,.45-.17,4.18,4.18,0,0,0,2.09.4.88.88,0,0,0,.8-1c-.1-.58-.67-.93-1.67-1.13-1.27-.25-2.93-.91-3.23-2.56-.25-1.36.56-2.94,2.68-3.32a5.21,5.21,0,0,1,3.14.5.35.35,0,0,1,.16.43l-.51,1.19c-.07.17-.29.34-.44.26a4.38,4.38,0,0,0-2.12-.47.81.81,0,0,0-.74.86c.09.51.58.82,1.75,1.06s3,.76,3.35,2.64a3.08,3.08,0,0,1-2.73,3.44,4.45,4.45,0,0,1-3.29-.5C658.34,343.5,658.29,343.45,658.36,343.24Z"/><path class="cls-13" d="M665.58,339.39l-.36.06a.26.26,0,0,1-.3-.22L664.7,338a.26.26,0,0,1,.2-.31l.36-.06-.28-1.53a.28.28,0,0,1,.21-.31l1.47-.27a.26.26,0,0,1,.3.22l.28,1.53,1-.19a.26.26,0,0,1,.31.21l.22,1.23a.27.27,0,0,1-.21.31l-1,.19.31,1.72c.06.3.27.29.43.26a2.78,2.78,0,0,0,.52-.19.25.25,0,0,1,.34.12l.51,1.09a.28.28,0,0,1-.12.35,7.21,7.21,0,0,1-1.61.61c-1,.19-1.77-.36-2-1.62Z"/><path class="cls-10" d="M609,420a.26.26,0,0,1,.19-.31l.34-.09,6.81,3.71h0l-1.32-4.8a.27.27,0,0,1,.19-.33l1.62-.45a.28.28,0,0,1,.33.19l2.5,9.09a.26.26,0,0,1-.19.31l-.22.06a.4.4,0,0,1-.19,0l-6.81-3.9h0l1.38,5a.26.26,0,0,1-.19.33l-1.61.44a.28.28,0,0,1-.33-.19Z"/><path class="cls-10" d="M619.52,417.24a.27.27,0,0,1,.19-.33l5.59-1.54a.27.27,0,0,1,.33.19L626,417a.27.27,0,0,1-.19.33l-3.74,1,.46,1.67,3.08-.85a.28.28,0,0,1,.33.19l.4,1.47a.27.27,0,0,1-.19.33l-3.08.85.5,1.82,3.74-1a.27.27,0,0,1,.33.19l.4,1.47a.27.27,0,0,1-.19.33l-5.59,1.54a.27.27,0,0,1-.33-.19Z"/><path class="cls-10" d="M632.17,423.22l1.44-8-3.13.86a.28.28,0,0,1-.33-.19l-.33-1.22a.28.28,0,0,1,.19-.33l5.7-1.57a.28.28,0,0,1,.33.19l0,.09-1.72,9.55c-.07.38-.24.49-.45.54l-1.34.37a.27.27,0,0,1-.34-.18Z"/><path class="cls-10" d="M638.62,421.32c.5-1.24,1.75-4.51,2.22-5.94a2.07,2.07,0,0,0,.07-1.12,1.09,1.09,0,0,0-1.46-.65,2,2,0,0,0-1.12,1,.27.27,0,0,1-.38.1l-1.05-.61a.26.26,0,0,1-.11-.35,4,4,0,0,1,2.34-2.07,2.88,2.88,0,0,1,3.82,1.89,3.55,3.55,0,0,1,0,1.9c-.22.89-.93,2.64-1.32,3.7l2.38-.65a.28.28,0,0,1,.33.19l.33,1.22a.27.27,0,0,1-.19.33l-5.4,1.48a.27.27,0,0,1-.33-.19Z"/><path class="cls-10" d="M644.29,412.22l-.79.22a.11.11,0,0,1-.13-.08l-.17-.6a.11.11,0,0,1,.08-.13l2.44-.67a.11.11,0,0,1,.13.08l.17.6a.11.11,0,0,1-.08.13l-.79.22.81,2.94a.11.11,0,0,1-.08.13l-.66.18a.11.11,0,0,1-.13-.08Z"/><path class="cls-10" d="M646.41,410.88a.11.11,0,0,1,.08-.13l.65-.18a.11.11,0,0,1,.13.08l.38,1.39,1.57-.43-.38-1.39a.11.11,0,0,1,.08-.13l.66-.18a.11.11,0,0,1,.13.08l1,3.64a.11.11,0,0,1-.08.13l-.66.18a.11.11,0,0,1-.13-.08l-.4-1.45-1.57.43.4,1.45a.11.11,0,0,1-.08.13l-.65.18a.11.11,0,0,1-.13-.08Z"/><path class="cls-10" d="M655.7,415.81l.33-1.29a.36.36,0,0,1,.44-.21,4.18,4.18,0,0,0,2.12.22.88.88,0,0,0,.71-1.07c-.16-.57-.75-.87-1.77-1-1.29-.14-3-.64-3.44-2.27-.37-1.34.3-3,2.38-3.54a5.21,5.21,0,0,1,3.17.22c.19,0,.23.3.2.41l-.4,1.23c-.05.17-.26.36-.41.3a4.4,4.4,0,0,0-2.15-.28.81.81,0,0,0-.66.92c.14.5.65.77,1.83.91s3.07.49,3.57,2.33a3.08,3.08,0,0,1-2.42,3.67,4.44,4.44,0,0,1-3.32-.21C655.7,416.07,655.65,416,655.7,415.81Z"/><path class="cls-10" d="M662.55,411.34l-.35.1a.26.26,0,0,1-.31-.19l-.33-1.2a.26.26,0,0,1,.17-.32l.35-.1-.41-1.5a.28.28,0,0,1,.19-.33l1.44-.4a.26.26,0,0,1,.31.19l.41,1.5,1-.27a.26.26,0,0,1,.33.19l.33,1.2a.27.27,0,0,1-.19.33l-1,.27.46,1.69c.08.3.29.27.45.22a2.76,2.76,0,0,0,.5-.24.25.25,0,0,1,.35.09l.6,1a.28.28,0,0,1-.09.36,7.25,7.25,0,0,1-1.55.75c-1,.28-1.8-.2-2.14-1.43Z"/><path class="cls-10" d="M619.4,471.26a.26.26,0,0,1,.18-.32l.33-.1,6.9,3.55h0l-1.43-4.76a.27.27,0,0,1,.18-.33l1.61-.48a.28.28,0,0,1,.33.18l2.7,9a.26.26,0,0,1-.18.32l-.21.06a.41.41,0,0,1-.19,0l-6.89-3.74h0l1.5,5a.27.27,0,0,1-.18.33l-1.6.48a.28.28,0,0,1-.33-.18Z"/><path class="cls-10" d="M629.83,468.3A.27.27,0,0,1,630,468l5.56-1.66a.27.27,0,0,1,.33.18l.44,1.46a.27.27,0,0,1-.18.33l-3.72,1.11.5,1.66,3.06-.92a.27.27,0,0,1,.33.18l.44,1.46a.27.27,0,0,1-.18.33l-3.06.92.54,1.81,3.72-1.11a.27.27,0,0,1,.33.18l.44,1.46a.27.27,0,0,1-.18.33l-5.55,1.66a.27.27,0,0,1-.33-.18Z"/><path class="cls-10" d="M642.61,474l1.26-8-3.11.93a.28.28,0,0,1-.33-.18l-.36-1.21a.28.28,0,0,1,.18-.33l5.66-1.69a.28.28,0,0,1,.33.18l0,.09-1.5,9.59a.58.58,0,0,1-.43.55l-1.33.4a.27.27,0,0,1-.34-.17Z"/><path class="cls-10" d="M648.84,465.71l-1.29.38a.26.26,0,0,1-.32-.18l-.25-.85a.39.39,0,0,1,0-.23l1.5-2.12,1.23-.37a.26.26,0,0,1,.32.18l2.58,8.62a.26.26,0,0,1-.17.33l-1.49.45a.27.27,0,0,1-.33-.18Z"/><path class="cls-10" d="M652.59,463.29l-.78.23a.11.11,0,0,1-.13-.07l-.18-.6a.11.11,0,0,1,.07-.14L654,462a.11.11,0,0,1,.13.07l.18.6a.11.11,0,0,1-.07.13l-.78.23.87,2.92a.11.11,0,0,1-.07.13l-.66.2a.11.11,0,0,1-.14-.07Z"/><path class="cls-10" d="M654.68,461.9a.11.11,0,0,1,.07-.13l.65-.2a.11.11,0,0,1,.13.07L656,463l1.56-.47-.41-1.38a.11.11,0,0,1,.07-.13l.65-.19a.11.11,0,0,1,.13.07l1.08,3.62a.11.11,0,0,1-.07.13l-.65.19a.11.11,0,0,1-.13-.07l-.43-1.44-1.56.47.43,1.44a.11.11,0,0,1-.07.13l-.65.2a.11.11,0,0,1-.13-.07Z"/><path class="cls-10" d="M664.09,466.62l.3-1.3a.36.36,0,0,1,.43-.22,4.19,4.19,0,0,0,2.13.17.88.88,0,0,0,.68-1.08c-.17-.56-.77-.85-1.79-.94-1.29-.11-3-.58-3.49-2.19-.4-1.33.23-3,2.3-3.6a5.21,5.21,0,0,1,3.17.15c.19,0,.23.3.21.41l-.37,1.24c-.05.18-.26.37-.4.31a4.38,4.38,0,0,0-2.16-.23.81.81,0,0,0-.64.94c.15.5.66.75,1.85.86s3.08.42,3.63,2.25a3.08,3.08,0,0,1-2.34,3.72,4.45,4.45,0,0,1-3.33-.13C664.09,466.88,664,466.84,664.09,466.62Z"/><path class="cls-10" d="M670.83,462l-.35.1a.26.26,0,0,1-.32-.18l-.36-1.19a.26.26,0,0,1,.17-.33l.35-.1-.45-1.49a.27.27,0,0,1,.18-.33l1.44-.43a.26.26,0,0,1,.32.18l.45,1.49,1-.3a.26.26,0,0,1,.33.18l.36,1.19a.27.27,0,0,1-.18.33l-1,.3.5,1.68c.09.29.3.26.46.21a2.77,2.77,0,0,0,.5-.25.24.24,0,0,1,.35.09l.63,1a.28.28,0,0,1-.08.36,7.2,7.2,0,0,1-1.54.78c-1,.3-1.8-.16-2.17-1.38Z"/><path class="cls-14" d="M622.28,70.64,608.74,85.12v13h27.09v-13Z"/><polygon class="cls-15" points="623.62 82.81 623.62 79.66 621.03 79.66 621.03 82.81 617.63 82.81 617.63 85.39 621.03 85.39 621.03 94.69 623.62 94.69 623.62 85.39 626.94 85.39 626.94 82.81 623.62 82.81"/><path class="cls-10" d="M528.47,106.46a.26.26,0,0,1,.27-.25h.35l5.59,5.38h0v-5a.27.27,0,0,1,.27-.27h1.68a.28.28,0,0,1,.27.27V116a.26.26,0,0,1-.27.25h-.22a.4.4,0,0,1-.18-.07l-5.53-5.56h0v5.23a.27.27,0,0,1-.27.27h-1.67a.28.28,0,0,1-.27-.27Z"/><path class="cls-10" d="M539.31,106.61a.27.27,0,0,1,.27-.27h5.8a.27.27,0,0,1,.27.27v1.53a.27.27,0,0,1-.27.27H541.5v1.74h3.19a.28.28,0,0,1,.27.27v1.53a.27.27,0,0,1-.27.27H541.5v1.89h3.88a.27.27,0,0,1,.27.27v1.53a.27.27,0,0,1-.27.27h-5.8a.27.27,0,0,1-.27-.27Z"/><path class="cls-10" d="M549.92,115.73l3.5-7.31h-3.25a.28.28,0,0,1-.27-.27v-1.26a.28.28,0,0,1,.27-.27h5.91a.28.28,0,0,1,.27.27v.1l-4.19,8.75a.58.58,0,0,1-.57.41H550.2a.27.27,0,0,1-.28-.27Z"/><path class="cls-10" d="M557,114.65l.88-.87a.27.27,0,0,1,.34,0,4,4,0,0,0,1.67.67,1.3,1.3,0,0,0,1.33-1.33,1.33,1.33,0,0,0-1.44-1.36h-2.16a.47.47,0,0,1-.43-.49v-4.34a.27.27,0,0,1,.27-.27H562a.27.27,0,0,1,.27.27v1.23a.27.27,0,0,1-.27.27h-2.89v1.5h1a3.05,3.05,0,0,1,3.19,3.19,3.32,3.32,0,0,1-3.46,3.21,3.69,3.69,0,0,1-2.77-1.16C556.87,114.92,556.85,114.82,557,114.65Z"/><path class="cls-10" d="M564.7,108.33h-.82a.11.11,0,0,1-.11-.11v-.62a.11.11,0,0,1,.11-.11h2.53a.11.11,0,0,1,.11.11v.62a.11.11,0,0,1-.11.11h-.82v3a.11.11,0,0,1-.11.11h-.68a.11.11,0,0,1-.11-.11Z"/><path class="cls-10" d="M567.1,107.6a.11.11,0,0,1,.11-.11h.68a.11.11,0,0,1,.11.11V109h1.63V107.6a.11.11,0,0,1,.11-.11h.68a.11.11,0,0,1,.11.11v3.78a.11.11,0,0,1-.11.11h-.68a.11.11,0,0,1-.11-.11v-1.5H568v1.5a.11.11,0,0,1-.11.11h-.68a.11.11,0,0,1-.11-.11Z"/><path class="cls-10" d="M574.76,114.82l.66-1.16a.36.36,0,0,1,.48-.08,4.19,4.19,0,0,0,2,.77.88.88,0,0,0,1-.84c0-.59-.49-1-1.44-1.41-1.21-.48-2.72-1.42-2.72-3.1,0-1.39,1.08-2.79,3.24-2.79a5.21,5.21,0,0,1,3,1.05.35.35,0,0,1,.08.45l-.71,1.08c-.1.15-.35.28-.48.18a4.39,4.39,0,0,0-2-.84.81.81,0,0,0-.88.71c0,.52.42.91,1.53,1.36s2.83,1.29,2.83,3.19a3.08,3.08,0,0,1-3.31,2.9,4.44,4.44,0,0,1-3.15-1.08C574.69,115.07,574.65,115,574.76,114.82Z"/><path class="cls-10" d="M582.54,112.33h-.36a.26.26,0,0,1-.25-.27v-1.25a.25.25,0,0,1,.25-.27h.36V109a.28.28,0,0,1,.27-.27h1.5a.26.26,0,0,1,.25.27v1.55h1a.26.26,0,0,1,.27.27v1.25a.27.27,0,0,1-.27.27h-1v1.75c0,.31.21.34.38.34a2.73,2.73,0,0,0,.55-.1.25.25,0,0,1,.31.18l.31,1.16a.28.28,0,0,1-.18.32,7.22,7.22,0,0,1-1.7.31c-1.06,0-1.68-.67-1.68-1.95Z"/><path class="cls-10" d="M387.84,251.46a.42.42,0,0,1,.71-.12l2,1.95a.49.49,0,0,1,.08.54l-4.15,7.29.07.07,8.54-3.51a.46.46,0,0,1,.48.09l.31.3a.41.41,0,0,1,.11.47l-3.17,8.67.07.07,7.13-4.43a.49.49,0,0,1,.54.06l2,1.95a.42.42,0,0,1-.09.71l-14.45,8.48a.46.46,0,0,1-.54-.06l-.28-.27a.49.49,0,0,1-.11-.47l3.64-10.12-.05-.05-10,4a.49.49,0,0,1-.48-.09l-.28-.27a.46.46,0,0,1-.08-.54Z"/><path class="cls-10" d="M401.48,273.44a5,5,0,1,1-7.08.15A5.06,5.06,0,0,1,401.48,273.44Zm-4.84,5a1.93,1.93,0,0,0,2.73-.11,1.9,1.9,0,1,0-2.73-2.63A1.93,1.93,0,0,0,396.63,278.47Z"/><path class="cls-10" d="M409.47,281.12a5,5,0,1,1-7.08.16A5.06,5.06,0,0,1,409.47,281.12Zm-4.84,5a1.93,1.93,0,0,0,2.73-.11,1.9,1.9,0,1,0-2.73-2.63A1.93,1.93,0,0,0,404.63,286.16Z"/><path class="cls-10" d="M417.34,288.69a4.83,4.83,0,0,1,1.12,1.71l4.82-5a.47.47,0,0,1,.65,0l1.92,1.85a.47.47,0,0,1,0,.65l-11,11.45a.47.47,0,0,1-.64,0l-.81-.78a.61.61,0,0,1,0-.7l.34-.77a4.15,4.15,0,0,1-3.37-1.14,4.86,4.86,0,0,1,.07-6.93C412.75,286.57,415.49,286.91,417.34,288.69ZM412.83,294a1.91,1.91,0,0,0,2.75-.09,1.88,1.88,0,0,0-.05-2.71,1.9,1.9,0,0,0-2.73,0A1.93,1.93,0,0,0,412.83,294Z"/><path class="cls-10" d="M427.73,289.66a.47.47,0,0,1,.65,0l1.9,1.83a.47.47,0,0,1,0,.65l-11,11.45a.47.47,0,0,1-.64,0l-1.9-1.83a.47.47,0,0,1,0-.64Z"/><path class="cls-10" d="M427.16,303.27a4.5,4.5,0,0,1,1.07,1.56c.65-.67.88-1.12,0-1.92a10.15,10.15,0,0,0-2-1.4c-.34-.16-.28-.47-.07-.76l.89-1.24a.51.51,0,0,1,.71-.22,16.83,16.83,0,0,1,2.55,2c2.14,2.06,2.06,3.71.1,5.75l-3.68,3.82a.47.47,0,0,1-.64,0l-.76-.73a.45.45,0,0,1-.1-.53l.21-.7a4,4,0,0,1-2.93-1.15,3.11,3.11,0,0,1-.19-4.58A3.2,3.2,0,0,1,427.16,303.27Zm-2.34,3.34a1,1,0,1,0,1.43-1.49,1,1,0,0,0-1.44,0A1,1,0,0,0,424.82,306.6Z"/><path class="cls-10" d="M433.67,305.56a.43.43,0,0,1,.73-.13L436,307a.5.5,0,0,1,.11.51l-1.38,3.24,0,0,4.16-1a.45.45,0,0,1,.41.13l.17.17a.42.42,0,0,1,.13.39l-.85,4.21,0,0,3.16-1.52a.43.43,0,0,1,.55.13l1.61,1.55a.43.43,0,0,1-.11.73l-8.51,4.24a.48.48,0,0,1-.51-.09l-.07-.07a.55.55,0,0,1-.14-.41l1.1-5.61,0,0-5.52,1.35a.59.59,0,0,1-.41-.13l-.09-.08a.44.44,0,0,1-.09-.49Z"/><path class="cls-10" d="M445.24,316.49a.45.45,0,0,1,.64,0l.81.78a.53.53,0,0,1,.11.51l-.39,1a4.53,4.53,0,0,1,3.47,1.27c2.14,2.06,1.71,4.8-.19,6.78l-3,3.15a.47.47,0,0,1-.64,0l-1.85-1.78a.45.45,0,0,1,0-.64l3.11-3.23a1.64,1.64,0,0,0,.07-2.43,1.75,1.75,0,0,0-2.48-.05l-3.19,3.32a.41.41,0,0,1-.63,0l-1.82-1.75a.47.47,0,0,1,0-.64Z"/><path class="cls-10" d="M451.29,334.13l16.61-6.44a.49.49,0,0,1,.48.09l.17.17a.49.49,0,0,1,.11.47l-5.78,16.85a.42.42,0,0,1-.73.17l-1.92-1.85a.81.81,0,0,1-.19-1l.69-2L456,336.09l-2,.78a.89.89,0,0,1-1-.18l-1.9-1.83A.42.42,0,0,1,451.29,334.13ZM462,337.26l1.43-4.12,0,0-4,1.61Z"/><path class="cls-10" d="M468.1,338.74a.43.43,0,0,1,.74-.18l1.94,1.86a.52.52,0,0,1,.13.49l-1.24,3.33.05.05,3.35-1.3c.3-.11.41,0,.65.26l1.75,1.68a.43.43,0,0,1-.16.75L465.82,349a.56.56,0,0,1-.46-.11l-.09-.08a.56.56,0,0,1-.13-.46Z"/><path class="cls-10" d="M480,348.91a4.48,4.48,0,0,1,.16,6.41,5.52,5.52,0,0,1-.48.43.46.46,0,0,1-.61,0l-4.15-4a1.78,1.78,0,0,0,.23,2.42,3.13,3.13,0,0,0,1.61.75c.27,0,.45.2.43.42L477,357.2a.52.52,0,0,1-.5.49,4.88,4.88,0,0,1-3.51-1.48,5,5,0,0,1,7-7.3Zm-1.71,3.48a1.29,1.29,0,0,0-.13-1.7,1.34,1.34,0,0,0-1.72-.08Z"/><path class="cls-10" d="M493.54,352.58a.45.45,0,0,1,.63,0l.43.42.51,13.28,0,0,5.91-6.14a.46.46,0,0,1,.65,0l2.08,2a.47.47,0,0,1,0,.64l-11.2,11.64a.45.45,0,0,1-.63,0l-.28-.27a.72.72,0,0,1-.14-.3l-.23-13.44,0,0-6.21,6.45a.46.46,0,0,1-.64,0l-2.06-2a.47.47,0,0,1,0-.64Z"/><path class="cls-10" d="M506.75,365.65a.45.45,0,0,1,.64,0l7.16,6.89a.46.46,0,0,1,0,.64l-1.81,1.88a.46.46,0,0,1-.64,0l-4.79-4.61-2.06,2.15,3.94,3.79a.47.47,0,0,1,0,.64l-1.81,1.88a.46.46,0,0,1-.65,0l-3.94-3.79-2.25,2.33,4.79,4.61a.46.46,0,0,1,0,.64l-1.81,1.89a.46.46,0,0,1-.64,0l-7.16-6.89a.45.45,0,0,1,0-.64Z"/><g class="cls-16"><path class="cls-17" d="M601.06,373a6.18,6.18,0,0,1,4.11.78.28.28,0,0,1,.11.42l-1,1.55a.34.34,0,0,1-.42.09,3,3,0,0,0-2.2-.38,3.21,3.21,0,0,0,1.16,6.31,3.76,3.76,0,0,0,1.36-.51l-.17-.91-1,.18a.29.29,0,0,1-.35-.23l-.28-1.56a.29.29,0,0,1,.24-.35l3.17-.58a.3.3,0,0,1,.34.25l.79,4.23a.39.39,0,0,1-.08.27,8.09,8.09,0,0,1-3.72,1.73A5.75,5.75,0,0,1,601.06,373Z"/><path class="cls-17" d="M607.46,377.12a.3.3,0,0,1,.25-.35l.74-.13a.29.29,0,0,1,.32.14l.41.64a2.21,2.21,0,0,1,1.53-1.35c.87-.16,1.54,0,1.38.45l-.54,1.4a.27.27,0,0,1-.32.21,1.15,1.15,0,0,0-.39,0,.85.85,0,0,0-.67,1l.59,3.26c0,.19,0,.32-.29.36l-1.61.29a.31.31,0,0,1-.35-.24Z"/><path class="cls-17" d="M615.53,375.19a3,3,0,0,1,3.53,2.42,3.92,3.92,0,0,1,0,.43.31.31,0,0,1-.25.32l-3.78.69a1.19,1.19,0,0,0,1.4.82,2.08,2.08,0,0,0,1-.58.28.28,0,0,1,.39-.07l1,.8a.34.34,0,0,1,.07.46,3.25,3.25,0,0,1-2.17,1.32,3.36,3.36,0,0,1-1.23-6.61Zm1.21,2.29a.86.86,0,0,0-1-.59.89.89,0,0,0-.72.89Z"/><path class="cls-17" d="M622,376.52a3,3,0,0,1,1.26,0c-.11-.61-.26-.91-1-.78a6.79,6.79,0,0,0-1.53.52c-.22.12-.36,0-.44-.26l-.32-1a.34.34,0,0,1,.16-.47,11.2,11.2,0,0,1,2.05-.62c2-.35,2.81.34,3.15,2.19l.63,3.48a.31.31,0,0,1-.25.35l-.69.13a.3.3,0,0,1-.32-.15l-.3-.39a2.68,2.68,0,0,1-1.76,1.13,2.08,2.08,0,0,1-2.55-1.68A2.14,2.14,0,0,1,622,376.52Zm.89,2.57a.69.69,0,1,0-.25-1.35.68.68,0,0,0-.56.79A.7.7,0,0,0,622.87,379.09Z"/><path class="cls-17" d="M627,375.32l-.41.08a.3.3,0,0,1-.34-.25l-.25-1.4a.29.29,0,0,1,.23-.35l.41-.07-.32-1.75a.32.32,0,0,1,.25-.35l1.69-.31a.3.3,0,0,1,.34.25l.32,1.75,1.17-.21a.29.29,0,0,1,.35.25l.25,1.4a.3.3,0,0,1-.25.35l-1.17.21.36,2c.06.35.3.33.49.3a3.14,3.14,0,0,0,.59-.22.28.28,0,0,1,.38.14l.58,1.24a.32.32,0,0,1-.14.4,8.27,8.27,0,0,1-1.84.69c-1.2.22-2-.41-2.29-1.85Z"/><path class="cls-17" d="M635,367.23a.32.32,0,0,1,.25-.35l1.87-.34a.3.3,0,0,1,.35.24l.72,4,4.5-.82-.72-4a.3.3,0,0,1,.25-.35l1.88-.34a.31.31,0,0,1,.35.25l1.89,10.43a.31.31,0,0,1-.24.35l-1.87.34a.3.3,0,0,1-.35-.25l-.75-4.14-4.5.82.75,4.14a.3.3,0,0,1-.25.35l-1.87.34a.31.31,0,0,1-.35-.25Z"/><path class="cls-17" d="M649.42,371.53a3,3,0,0,1,1.26,0c-.11-.61-.26-.91-1-.77a6.79,6.79,0,0,0-1.53.52c-.22.12-.36,0-.44-.26l-.32-1a.34.34,0,0,1,.16-.47,11.3,11.3,0,0,1,2.05-.62c2-.36,2.81.33,3.15,2.19l.63,3.48a.31.31,0,0,1-.25.35l-.69.13a.3.3,0,0,1-.32-.15l-.3-.38a2.68,2.68,0,0,1-1.76,1.13,2.08,2.08,0,0,1-2.55-1.68A2.13,2.13,0,0,1,649.42,371.53Zm.89,2.57a.69.69,0,1,0-.25-1.35.68.68,0,0,0-.56.78A.7.7,0,0,0,650.31,374.1Z"/><path class="cls-17" d="M653.07,364a.32.32,0,0,1,.25-.35l1.73-.31a.31.31,0,0,1,.35.25L657.29,374a.31.31,0,0,1-.25.35l-1.73.31a.31.31,0,0,1-.35-.24Z"/><path class="cls-17" d="M657.1,363.22a.32.32,0,0,1,.25-.35l1.73-.31a.32.32,0,0,1,.35.25l1.89,10.43a.31.31,0,0,1-.25.35l-1.73.31a.32.32,0,0,1-.35-.24Z"/><path class="cls-17" d="M667.71,368.21a3,3,0,0,1,1.26,0c-.11-.62-.26-.91-1-.78a6.77,6.77,0,0,0-1.53.52c-.22.12-.37,0-.44-.26l-.32-1a.34.34,0,0,1,.16-.47,11.32,11.32,0,0,1,2.05-.62c2-.35,2.81.33,3.15,2.19l.63,3.48a.31.31,0,0,1-.25.35l-.69.13a.3.3,0,0,1-.32-.15l-.3-.39a2.68,2.68,0,0,1-1.76,1.13,2.08,2.08,0,0,1-2.55-1.68A2.14,2.14,0,0,1,667.71,368.21Zm.89,2.57a.69.69,0,1,0-.25-1.35.68.68,0,0,0-.56.78A.7.7,0,0,0,668.6,370.78Z"/><path class="cls-17" d="M672.78,367l-.41.07a.3.3,0,0,1-.34-.25l-.25-1.4a.29.29,0,0,1,.23-.35l.41-.07-.32-1.75a.32.32,0,0,1,.25-.35l1.68-.31a.3.3,0,0,1,.34.25l.32,1.75,1.16-.21a.3.3,0,0,1,.35.25l.25,1.4a.3.3,0,0,1-.25.35l-1.16.21.36,2c.06.35.3.34.49.3a3.12,3.12,0,0,0,.59-.22.28.28,0,0,1,.38.14l.58,1.24a.32.32,0,0,1-.14.4,8.21,8.21,0,0,1-1.84.69c-1.2.22-2-.41-2.29-1.85Z"/><path class="cls-17" d="M603.92,388.69a6.18,6.18,0,0,1,4.11.78.28.28,0,0,1,.11.42l-1,1.55a.34.34,0,0,1-.42.09,2.94,2.94,0,0,0-2.2-.38,3.21,3.21,0,0,0,1.16,6.31A3.77,3.77,0,0,0,607,397l-.17-.91-1,.18a.29.29,0,0,1-.35-.23l-.28-1.56a.29.29,0,0,1,.24-.35l3.17-.58a.3.3,0,0,1,.34.25l.79,4.23a.39.39,0,0,1-.08.27A8.08,8.08,0,0,1,606,400a5.75,5.75,0,0,1-2.05-11.31Z"/><path class="cls-17" d="M610.32,392.87a.31.31,0,0,1,.25-.35l.74-.13a.29.29,0,0,1,.32.14l.41.64a2.21,2.21,0,0,1,1.53-1.35c.87-.16,1.54,0,1.38.45l-.54,1.4a.27.27,0,0,1-.32.21,1.15,1.15,0,0,0-.39,0,.85.85,0,0,0-.67,1l.59,3.26c0,.19,0,.32-.29.36l-1.61.29a.31.31,0,0,1-.35-.24Z"/><path class="cls-17" d="M618.39,390.93a3,3,0,0,1,3.53,2.42,4.18,4.18,0,0,1,0,.43.31.31,0,0,1-.25.32l-3.78.69a1.19,1.19,0,0,0,1.4.82,2.09,2.09,0,0,0,1-.58.28.28,0,0,1,.39-.07l1,.8a.35.35,0,0,1,.07.46,3.25,3.25,0,0,1-2.17,1.32,3.36,3.36,0,0,1-1.23-6.61Zm1.21,2.29a.86.86,0,0,0-1-.59.89.89,0,0,0-.72.89Z"/><path class="cls-17" d="M625.3,389.67a3,3,0,0,1,3.53,2.42,4.18,4.18,0,0,1,0,.43.31.31,0,0,1-.25.32l-3.78.69a1.19,1.19,0,0,0,1.4.82,2.09,2.09,0,0,0,1-.58.28.28,0,0,1,.39-.07l1,.8a.34.34,0,0,1,.07.46,3.25,3.25,0,0,1-2.17,1.32,3.36,3.36,0,0,1-1.23-6.61Zm1.21,2.29a.86.86,0,0,0-1-.59.89.89,0,0,0-.72.89Z"/><path class="cls-17" d="M629.51,389.38a.3.3,0,0,1,.25-.35l.74-.13a.35.35,0,0,1,.32.14l.37.58a3.06,3.06,0,0,1,5.63,1.37l.52,2.87a.32.32,0,0,1-.25.35l-1.69.31a.3.3,0,0,1-.35-.25l-.54-2.95a1.09,1.09,0,0,0-1.29-1,1.17,1.17,0,0,0-1,1.32l.55,3a.27.27,0,0,1-.23.35l-1.65.3a.32.32,0,0,1-.35-.25Z"/><path class="cls-17" d="M640.95,382.42a.3.3,0,0,1,.24-.35l1.87-.34a.31.31,0,0,1,.35.24l1.53,8.41,3.75-.68a.3.3,0,0,1,.35.25l.31,1.72a.3.3,0,0,1-.25.35l-5.92,1.08a.3.3,0,0,1-.35-.25Z"/><path class="cls-17" d="M651.59,387.4a3,3,0,0,1,1.26,0c-.11-.61-.26-.91-1-.78a6.84,6.84,0,0,0-1.53.52c-.22.12-.36,0-.44-.26l-.32-1a.34.34,0,0,1,.16-.47,11.2,11.2,0,0,1,2.05-.62c2-.35,2.81.34,3.15,2.19l.63,3.48a.32.32,0,0,1-.25.35l-.69.13a.3.3,0,0,1-.32-.15l-.3-.38a2.68,2.68,0,0,1-1.76,1.13,2.08,2.08,0,0,1-2.55-1.68A2.14,2.14,0,0,1,651.59,387.4Zm.89,2.57a.69.69,0,1,0-.25-1.35.68.68,0,0,0-.56.78A.7.7,0,0,0,652.48,390Z"/><path class="cls-17" d="M655.24,379.82a.31.31,0,0,1,.25-.35l1.75-.32a.32.32,0,0,1,.35.25l1.24,6.82,1.5-2.55a.53.53,0,0,1,.36-.26l1.76-.32a.3.3,0,0,1,.33.45l-1.64,2.79,3.05,2.47a.29.29,0,0,1-.15.51l-2.13.39a.41.41,0,0,1-.26-.08L659,387.26l.47,2.57a.32.32,0,0,1-.25.35l-1.75.32a.31.31,0,0,1-.35-.25Z"/><path class="cls-17" d="M666.73,382.14a3,3,0,0,1,3.53,2.42c0,.11,0,.32,0,.43a.31.31,0,0,1-.25.32l-3.78.69a1.19,1.19,0,0,0,1.4.82,2.09,2.09,0,0,0,1-.58.28.28,0,0,1,.39-.07l1,.8a.34.34,0,0,1,.07.46,3.25,3.25,0,0,1-2.17,1.32,3.36,3.36,0,0,1-1.23-6.61Zm1.21,2.29a.86.86,0,0,0-1-.59.89.89,0,0,0-.71.89Z"/></g><path class="cls-10" d="M556.21,91.37l.85-1.49a.46.46,0,0,1,.61-.11,5.37,5.37,0,0,0,2.56,1,1.13,1.13,0,0,0,1.24-1.08c0-.76-.63-1.33-1.85-1.82-1.55-.61-3.49-1.82-3.49-4,0-1.78,1.39-3.58,4.16-3.58a6.7,6.7,0,0,1,3.85,1.35.46.46,0,0,1,.11.58l-.92,1.39c-.13.2-.45.36-.61.23a5.64,5.64,0,0,0-2.58-1.08,1,1,0,0,0-1.13.92c0,.67.54,1.17,2,1.75s3.64,1.66,3.64,4.11a4,4,0,0,1-4.25,3.73,5.72,5.72,0,0,1-4.05-1.39C556.12,91.7,556.07,91.62,556.21,91.37Z"/><path class="cls-10" d="M566.79,80.82a.34.34,0,0,1,.34-.34h7.45a.34.34,0,0,1,.34.34v2a.34.34,0,0,1-.34.34h-5v2.59h4.11a.35.35,0,0,1,.34.34v2a.35.35,0,0,1-.34.34H569.6v4.38a.35.35,0,0,1-.34.34h-2.12a.34.34,0,0,1-.34-.34Z"/><path class="cls-10" d="M582.51,80.3A6,6,0,0,1,586.87,82a.34.34,0,0,1,0,.5l-1.41,1.46a.31.31,0,0,1-.45,0A3.68,3.68,0,0,0,582.6,83a3.69,3.69,0,0,0,0,7.36,3.81,3.81,0,0,0,2.41-.86.36.36,0,0,1,.47,0L586.9,91a.36.36,0,0,1,0,.49,6.18,6.18,0,0,1-4.38,1.75,6.48,6.48,0,1,1,0-13Z"/><path class="cls-10" d="M594.57,80.3A6,6,0,0,1,598.93,82a.34.34,0,0,1,0,.5l-1.41,1.46a.32.32,0,0,1-.45,0,3.68,3.68,0,0,0-2.43-.92,3.69,3.69,0,0,0,0,7.36,3.81,3.81,0,0,0,2.41-.86.36.36,0,0,1,.47,0L599,91a.36.36,0,0,1,0,.49,6.18,6.18,0,0,1-4.38,1.75,6.48,6.48,0,1,1,0-13Z"/></g></svg>